%TF.GenerationSoftware,KiCad,Pcbnew,(6.0.5-0)*%
%TF.CreationDate,2022-08-12T15:30:33+02:00*%
%TF.ProjectId,OpenOBDPower,4f70656e-4f42-4445-906f-7765722e6b69,rev?*%
%TF.SameCoordinates,Original*%
%TF.FileFunction,Copper,L2,Bot*%
%TF.FilePolarity,Positive*%
%FSLAX46Y46*%
G04 Gerber Fmt 4.6, Leading zero omitted, Abs format (unit mm)*
G04 Created by KiCad (PCBNEW (6.0.5-0)) date 2022-08-12 15:30:33*
%MOMM*%
%LPD*%
G01*
G04 APERTURE LIST*
%TA.AperFunction,ComponentPad*%
%ADD10C,3.215640*%
%TD*%
%TA.AperFunction,ComponentPad*%
%ADD11R,1.500000X1.500000*%
%TD*%
%TA.AperFunction,ComponentPad*%
%ADD12C,1.500000*%
%TD*%
%TA.AperFunction,ComponentPad*%
%ADD13C,2.300000*%
%TD*%
%TA.AperFunction,Conductor*%
%ADD14C,0.500000*%
%TD*%
%TA.AperFunction,Conductor*%
%ADD15C,2.000000*%
%TD*%
G04 APERTURE END LIST*
D10*
%TO.P,M1,4,CHASGND*%
%TO.N,GND*%
X138105200Y-95070000D03*
%TO.P,M1,5,SIGGND*%
X142052360Y-95070000D03*
%TO.P,M1,6,CANHIGH*%
%TO.N,CAN_H*%
X146002060Y-95070000D03*
%TO.P,M1,14,CANLOW*%
%TO.N,CAN_L*%
X146002060Y-103469780D03*
%TO.P,M1,16,BATTPOWER*%
%TO.N,+12V*%
X153904000Y-103469780D03*
%TD*%
D11*
%TO.P,J1,1*%
%TO.N,GND*%
X126270000Y-95930000D03*
D12*
%TO.P,J1,2*%
%TO.N,CAN_L*%
X124490000Y-96946000D03*
%TO.P,J1,3*%
%TO.N,unconnected-(J1-Pad3)*%
X126270000Y-97962000D03*
%TO.P,J1,4*%
%TO.N,CAN_H*%
X124490000Y-98978000D03*
%TO.P,J1,5*%
%TO.N,GND*%
X126270000Y-99994000D03*
%TO.P,J1,6*%
%TO.N,unconnected-(J1-Pad6)*%
X124490000Y-101010000D03*
%TO.P,J1,7*%
%TO.N,+12V*%
X126270000Y-102026000D03*
%TO.P,J1,8*%
X124490000Y-103042000D03*
D13*
%TO.P,J1,SH*%
%TO.N,N/C*%
X125380000Y-107620000D03*
X125380000Y-91360000D03*
%TD*%
D14*
%TO.N,CAN_H*%
X128030000Y-95370000D02*
X126880000Y-94220000D01*
X135820000Y-92430000D02*
X132880000Y-95370000D01*
X122710000Y-98490000D02*
X123198000Y-98978000D01*
X132880000Y-95370000D02*
X128030000Y-95370000D01*
X126880000Y-94220000D02*
X124500000Y-94220000D01*
X144230000Y-92430000D02*
X135820000Y-92430000D01*
X124500000Y-94220000D02*
X122710000Y-96010000D01*
X146002060Y-95070000D02*
X146002060Y-94202060D01*
X122710000Y-96010000D02*
X122710000Y-98490000D01*
X146002060Y-94202060D02*
X144230000Y-92430000D01*
X123198000Y-98978000D02*
X124490000Y-98978000D01*
D15*
%TO.N,+12V*%
X153904000Y-103469780D02*
X153855620Y-103421400D01*
X153855620Y-103421400D02*
X153349400Y-103421400D01*
%TD*%
%TA.AperFunction,Conductor*%
%TO.N,GND*%
G36*
X157715281Y-90498538D02*
G01*
X157722442Y-90498716D01*
X157840481Y-90501642D01*
X157846670Y-90501948D01*
X157963172Y-90510615D01*
X157969350Y-90511229D01*
X158084848Y-90525575D01*
X158090945Y-90526484D01*
X158205305Y-90546439D01*
X158211326Y-90547643D01*
X158324256Y-90573108D01*
X158330224Y-90574608D01*
X158441609Y-90605517D01*
X158447478Y-90607301D01*
X158557098Y-90643571D01*
X158562869Y-90645637D01*
X158613336Y-90665114D01*
X158670525Y-90687185D01*
X158676201Y-90689537D01*
X158781705Y-90736284D01*
X158787261Y-90738909D01*
X158890412Y-90790770D01*
X158895841Y-90793668D01*
X158996425Y-90850554D01*
X159001706Y-90853713D01*
X159078972Y-90902546D01*
X159099597Y-90915581D01*
X159104712Y-90918992D01*
X159199649Y-90985720D01*
X159204618Y-90989398D01*
X159273927Y-91043390D01*
X159296432Y-91060922D01*
X159301236Y-91064858D01*
X159389749Y-91141112D01*
X159394351Y-91145280D01*
X159417830Y-91167623D01*
X159479380Y-91226197D01*
X159483795Y-91230612D01*
X159564722Y-91315653D01*
X159568889Y-91320254D01*
X159645159Y-91408785D01*
X159649063Y-91413550D01*
X159707712Y-91488836D01*
X159720591Y-91505369D01*
X159724276Y-91510347D01*
X159791000Y-91605278D01*
X159794426Y-91610416D01*
X159856272Y-91708270D01*
X159859429Y-91713546D01*
X159879158Y-91748430D01*
X159916334Y-91814165D01*
X159919231Y-91819593D01*
X159971096Y-91922751D01*
X159973721Y-91928306D01*
X160020453Y-92033775D01*
X160022805Y-92039452D01*
X160045967Y-92099467D01*
X160064358Y-92147120D01*
X160064360Y-92147126D01*
X160066429Y-92152905D01*
X160084260Y-92206795D01*
X160102690Y-92262498D01*
X160104480Y-92268384D01*
X160135388Y-92379759D01*
X160136890Y-92385736D01*
X160162357Y-92498680D01*
X160163564Y-92504717D01*
X160183512Y-92619041D01*
X160184426Y-92625167D01*
X160198768Y-92740624D01*
X160199382Y-92746805D01*
X160208053Y-92863344D01*
X160208359Y-92869535D01*
X160210551Y-92957954D01*
X160211462Y-92994717D01*
X160211501Y-92997839D01*
X160211501Y-105982159D01*
X160211462Y-105985279D01*
X160210114Y-106039690D01*
X160208360Y-106110454D01*
X160208053Y-106116667D01*
X160201818Y-106200457D01*
X160199382Y-106233191D01*
X160198769Y-106239365D01*
X160194055Y-106277312D01*
X160184425Y-106354835D01*
X160183511Y-106360960D01*
X160172166Y-106425978D01*
X160163565Y-106475275D01*
X160163564Y-106475278D01*
X160162357Y-106481315D01*
X160156317Y-106508104D01*
X160136890Y-106594260D01*
X160135388Y-106600236D01*
X160104482Y-106711608D01*
X160102692Y-106717496D01*
X160066432Y-106827084D01*
X160064360Y-106832869D01*
X160022812Y-106940529D01*
X160020467Y-106946190D01*
X159976597Y-107045202D01*
X159973723Y-107051688D01*
X159971100Y-107057240D01*
X159919212Y-107160441D01*
X159916339Y-107165822D01*
X159892947Y-107207185D01*
X159859445Y-107266423D01*
X159856281Y-107271712D01*
X159794426Y-107369582D01*
X159790999Y-107374721D01*
X159724275Y-107469652D01*
X159720589Y-107474631D01*
X159649082Y-107566421D01*
X159645152Y-107571218D01*
X159568882Y-107659751D01*
X159564716Y-107664351D01*
X159562461Y-107666721D01*
X159483801Y-107749379D01*
X159479387Y-107753793D01*
X159439661Y-107791598D01*
X159404597Y-107824966D01*
X159394347Y-107834720D01*
X159389735Y-107838897D01*
X159312257Y-107905644D01*
X159301241Y-107915134D01*
X159296437Y-107919071D01*
X159256622Y-107950087D01*
X159204619Y-107990598D01*
X159199640Y-107994283D01*
X159104729Y-108060993D01*
X159104723Y-108060997D01*
X159099591Y-108064420D01*
X159029440Y-108108757D01*
X159001725Y-108126273D01*
X158996455Y-108129426D01*
X158918114Y-108173732D01*
X158895838Y-108186330D01*
X158890410Y-108189227D01*
X158787260Y-108241088D01*
X158781705Y-108243713D01*
X158676205Y-108290459D01*
X158670527Y-108292811D01*
X158562878Y-108334355D01*
X158557093Y-108336427D01*
X158447486Y-108372693D01*
X158441599Y-108374483D01*
X158429394Y-108377870D01*
X158330230Y-108405388D01*
X158324268Y-108406886D01*
X158211319Y-108432354D01*
X158205279Y-108433562D01*
X158177535Y-108438403D01*
X158090961Y-108453509D01*
X158084835Y-108454423D01*
X157969370Y-108468766D01*
X157963187Y-108469380D01*
X157943624Y-108470836D01*
X157846652Y-108478050D01*
X157840466Y-108478356D01*
X157717815Y-108481396D01*
X157715283Y-108481459D01*
X157712161Y-108481498D01*
X127006875Y-108481498D01*
X126938754Y-108461496D01*
X126892261Y-108407840D01*
X126882157Y-108337566D01*
X126890466Y-108307280D01*
X126960310Y-108138662D01*
X126960311Y-108138660D01*
X126962204Y-108134089D01*
X126996198Y-107992495D01*
X127021991Y-107885062D01*
X127021992Y-107885056D01*
X127023146Y-107880249D01*
X127043628Y-107620000D01*
X127025584Y-107390729D01*
X127040180Y-107321249D01*
X127090023Y-107270689D01*
X127159287Y-107255103D01*
X127225983Y-107279438D01*
X127237929Y-107289446D01*
X127433077Y-107474634D01*
X127446878Y-107487731D01*
X127683113Y-107657483D01*
X127708924Y-107671149D01*
X127875872Y-107759543D01*
X127940200Y-107793603D01*
X127944223Y-107795075D01*
X127944227Y-107795077D01*
X128190122Y-107885062D01*
X128213382Y-107893574D01*
X128497604Y-107955544D01*
X128526650Y-107957830D01*
X128723297Y-107973307D01*
X128723304Y-107973307D01*
X128725753Y-107973500D01*
X128883121Y-107973500D01*
X128885257Y-107973354D01*
X128885268Y-107973354D01*
X129095949Y-107958991D01*
X129095955Y-107958990D01*
X129100226Y-107958699D01*
X129104421Y-107957830D01*
X129104423Y-107957830D01*
X129291570Y-107919074D01*
X129385081Y-107899709D01*
X129659295Y-107802605D01*
X129917793Y-107669184D01*
X129921294Y-107666723D01*
X129921298Y-107666721D01*
X130060528Y-107568868D01*
X130155792Y-107501915D01*
X130235618Y-107427736D01*
X130365745Y-107306815D01*
X130365748Y-107306812D01*
X130368888Y-107303894D01*
X130373279Y-107298530D01*
X130550423Y-107082102D01*
X130553139Y-107078784D01*
X130705133Y-106830752D01*
X130713869Y-106810852D01*
X130782618Y-106654235D01*
X130822059Y-106564386D01*
X130827818Y-106544171D01*
X130879213Y-106363746D01*
X130901754Y-106284616D01*
X130902538Y-106279113D01*
X130942137Y-106000870D01*
X130942742Y-105996619D01*
X130944265Y-105705723D01*
X130906295Y-105417313D01*
X130829535Y-105136724D01*
X130771569Y-105000825D01*
X130717090Y-104873100D01*
X130717088Y-104873096D01*
X130715404Y-104869148D01*
X130566015Y-104619538D01*
X130558267Y-104609866D01*
X130386823Y-104395869D01*
X130384133Y-104392511D01*
X130173122Y-104192269D01*
X129936887Y-104022517D01*
X129679800Y-103886397D01*
X129675777Y-103884925D01*
X129675773Y-103884923D01*
X129410649Y-103787901D01*
X129410647Y-103787900D01*
X129406618Y-103786426D01*
X129122396Y-103724456D01*
X129078598Y-103721009D01*
X128896703Y-103706693D01*
X128896696Y-103706693D01*
X128894247Y-103706500D01*
X128736879Y-103706500D01*
X128734743Y-103706646D01*
X128734732Y-103706646D01*
X128524051Y-103721009D01*
X128524045Y-103721010D01*
X128519774Y-103721301D01*
X128515579Y-103722170D01*
X128515577Y-103722170D01*
X128377346Y-103750796D01*
X128234919Y-103780291D01*
X127960705Y-103877395D01*
X127956896Y-103879361D01*
X127711825Y-104005852D01*
X127702207Y-104010816D01*
X127698706Y-104013277D01*
X127698702Y-104013279D01*
X127682001Y-104025017D01*
X127464208Y-104178085D01*
X127384382Y-104252264D01*
X127276169Y-104352822D01*
X127251112Y-104376106D01*
X127248398Y-104379422D01*
X127248395Y-104379425D01*
X127234936Y-104395869D01*
X127066861Y-104601216D01*
X126914867Y-104849248D01*
X126913148Y-104853165D01*
X126913146Y-104853168D01*
X126904397Y-104873100D01*
X126797941Y-105115614D01*
X126796765Y-105119742D01*
X126796764Y-105119745D01*
X126778699Y-105183163D01*
X126718246Y-105395384D01*
X126717642Y-105399626D01*
X126717641Y-105399632D01*
X126690813Y-105588138D01*
X126677258Y-105683381D01*
X126677141Y-105705723D01*
X126675778Y-105966096D01*
X126675735Y-105974277D01*
X126676294Y-105978521D01*
X126676294Y-105978525D01*
X126683020Y-106029613D01*
X126713705Y-106262687D01*
X126714839Y-106266832D01*
X126718198Y-106279113D01*
X126716878Y-106350097D01*
X126677391Y-106409099D01*
X126612273Y-106437386D01*
X126542199Y-106425978D01*
X126514837Y-106408170D01*
X126428756Y-106334651D01*
X126361621Y-106277312D01*
X126361616Y-106277309D01*
X126357856Y-106274097D01*
X126135271Y-106137697D01*
X126130701Y-106135804D01*
X126130697Y-106135802D01*
X125898662Y-106039690D01*
X125898660Y-106039689D01*
X125894089Y-106037796D01*
X125805069Y-106016424D01*
X125645062Y-105978009D01*
X125645056Y-105978008D01*
X125640249Y-105976854D01*
X125380000Y-105956372D01*
X125119751Y-105976854D01*
X125114944Y-105978008D01*
X125114938Y-105978009D01*
X124954931Y-106016424D01*
X124865911Y-106037796D01*
X124861340Y-106039689D01*
X124861338Y-106039690D01*
X124629303Y-106135802D01*
X124629299Y-106135804D01*
X124624729Y-106137697D01*
X124402144Y-106274097D01*
X124203637Y-106443637D01*
X124034097Y-106642144D01*
X123897697Y-106864729D01*
X123895804Y-106869299D01*
X123895802Y-106869303D01*
X123810546Y-107075130D01*
X123797796Y-107105911D01*
X123784711Y-107160413D01*
X123738009Y-107354938D01*
X123738008Y-107354944D01*
X123736854Y-107359751D01*
X123716372Y-107620000D01*
X123736854Y-107880249D01*
X123738008Y-107885056D01*
X123738009Y-107885062D01*
X123763802Y-107992495D01*
X123797796Y-108134089D01*
X123799689Y-108138660D01*
X123799690Y-108138662D01*
X123869534Y-108307280D01*
X123877123Y-108377870D01*
X123845344Y-108441357D01*
X123784286Y-108477584D01*
X123753125Y-108481498D01*
X120527840Y-108481498D01*
X120524719Y-108481459D01*
X120520535Y-108481355D01*
X120399528Y-108478356D01*
X120393335Y-108478050D01*
X120276812Y-108469380D01*
X120270631Y-108468766D01*
X120209561Y-108461180D01*
X120155138Y-108454420D01*
X120149034Y-108453509D01*
X120034740Y-108433565D01*
X120028684Y-108432355D01*
X119919960Y-108407840D01*
X119915726Y-108406885D01*
X119909752Y-108405384D01*
X119798380Y-108374478D01*
X119792537Y-108372702D01*
X119682921Y-108336433D01*
X119677136Y-108334361D01*
X119569460Y-108292807D01*
X119563783Y-108290455D01*
X119458297Y-108243716D01*
X119452741Y-108241091D01*
X119398203Y-108213671D01*
X119349579Y-108189224D01*
X119344175Y-108186339D01*
X119243563Y-108129438D01*
X119238286Y-108126281D01*
X119238274Y-108126273D01*
X119140402Y-108064417D01*
X119135268Y-108060993D01*
X119131736Y-108058510D01*
X119040354Y-107994282D01*
X119035375Y-107990596D01*
X119007742Y-107969069D01*
X118943559Y-107919069D01*
X118938762Y-107915137D01*
X118921862Y-107900578D01*
X118850272Y-107838904D01*
X118845658Y-107834726D01*
X118760617Y-107753798D01*
X118756202Y-107749383D01*
X118746428Y-107739112D01*
X118675276Y-107664342D01*
X118671101Y-107659731D01*
X118594847Y-107571218D01*
X118590909Y-107566412D01*
X118519412Y-107474634D01*
X118515726Y-107469656D01*
X118448999Y-107374721D01*
X118445572Y-107369582D01*
X118405903Y-107306815D01*
X118383717Y-107271712D01*
X118380571Y-107266454D01*
X118323654Y-107165813D01*
X118320763Y-107160395D01*
X118277893Y-107075130D01*
X118268901Y-107057244D01*
X118266289Y-107051718D01*
X118264694Y-107048117D01*
X118219533Y-106946193D01*
X118217183Y-106940518D01*
X118175643Y-106832879D01*
X118173571Y-106827095D01*
X118137300Y-106717473D01*
X118135519Y-106711614D01*
X118135518Y-106711608D01*
X118104609Y-106600227D01*
X118103108Y-106594253D01*
X118077644Y-106481319D01*
X118076435Y-106475275D01*
X118071571Y-106447399D01*
X118056485Y-106360942D01*
X118055577Y-106354849D01*
X118041233Y-106239371D01*
X118040619Y-106233192D01*
X118033691Y-106140077D01*
X118031948Y-106116654D01*
X118031642Y-106110461D01*
X118028539Y-105985279D01*
X118028500Y-105982157D01*
X118028500Y-92997841D01*
X118028539Y-92994719D01*
X118031642Y-92869538D01*
X118031950Y-92863311D01*
X118032742Y-92852676D01*
X118040618Y-92746816D01*
X118041231Y-92740642D01*
X118045945Y-92702687D01*
X118055576Y-92625150D01*
X118056488Y-92619034D01*
X118056974Y-92616253D01*
X118076440Y-92504692D01*
X118077645Y-92498667D01*
X118103104Y-92385758D01*
X118104606Y-92379781D01*
X118135520Y-92268384D01*
X118137309Y-92262499D01*
X118173584Y-92152863D01*
X118175639Y-92147126D01*
X118217188Y-92039465D01*
X118219537Y-92033795D01*
X118247999Y-91969558D01*
X118266283Y-91928292D01*
X118268907Y-91922741D01*
X118320772Y-91819585D01*
X118323669Y-91814157D01*
X118340678Y-91784083D01*
X118380563Y-91713558D01*
X118383723Y-91708276D01*
X118391565Y-91695869D01*
X118445576Y-91610409D01*
X118449000Y-91605275D01*
X118515716Y-91510355D01*
X118519401Y-91505376D01*
X118590933Y-91413554D01*
X118594846Y-91408778D01*
X118671118Y-91320244D01*
X118675295Y-91315632D01*
X118677535Y-91313279D01*
X118756195Y-91230621D01*
X118760609Y-91226207D01*
X118845657Y-91145272D01*
X118850268Y-91141097D01*
X118938767Y-91064855D01*
X118943563Y-91060925D01*
X119035374Y-90989404D01*
X119040350Y-90985720D01*
X119135279Y-90918996D01*
X119140419Y-90915568D01*
X119196118Y-90880366D01*
X119238282Y-90853718D01*
X119243561Y-90850560D01*
X119251782Y-90845911D01*
X119344157Y-90793668D01*
X119349578Y-90790774D01*
X119452761Y-90738896D01*
X119458318Y-90736271D01*
X119563784Y-90689541D01*
X119569461Y-90687189D01*
X119677139Y-90645634D01*
X119682925Y-90643562D01*
X119708645Y-90635052D01*
X119792516Y-90607302D01*
X119798388Y-90605517D01*
X119810601Y-90602128D01*
X119909767Y-90574609D01*
X119915737Y-90573109D01*
X120028675Y-90547643D01*
X120034733Y-90546432D01*
X120149034Y-90526489D01*
X120155159Y-90525575D01*
X120270628Y-90511232D01*
X120276811Y-90510618D01*
X120298598Y-90508997D01*
X120393346Y-90501948D01*
X120399532Y-90501642D01*
X120524717Y-90498539D01*
X120527840Y-90498500D01*
X123753126Y-90498500D01*
X123821247Y-90518502D01*
X123867740Y-90572158D01*
X123877844Y-90642432D01*
X123869535Y-90672718D01*
X123820065Y-90792150D01*
X123797796Y-90845911D01*
X123791715Y-90871240D01*
X123738009Y-91094938D01*
X123738008Y-91094944D01*
X123736854Y-91099751D01*
X123716372Y-91360000D01*
X123736854Y-91620249D01*
X123738008Y-91625056D01*
X123738009Y-91625062D01*
X123767390Y-91747439D01*
X123797796Y-91874089D01*
X123799689Y-91878660D01*
X123799690Y-91878662D01*
X123891151Y-92099467D01*
X123897697Y-92115271D01*
X124034097Y-92337856D01*
X124203637Y-92536363D01*
X124402144Y-92705903D01*
X124624729Y-92842303D01*
X124629299Y-92844196D01*
X124629303Y-92844198D01*
X124861338Y-92940310D01*
X124865911Y-92942204D01*
X124916844Y-92954432D01*
X125114938Y-93001991D01*
X125114944Y-93001992D01*
X125119751Y-93003146D01*
X125380000Y-93023628D01*
X125640249Y-93003146D01*
X125645056Y-93001992D01*
X125645062Y-93001991D01*
X125843156Y-92954432D01*
X125894089Y-92942204D01*
X125898662Y-92940310D01*
X126130697Y-92844198D01*
X126130701Y-92844196D01*
X126135271Y-92842303D01*
X126357856Y-92705903D01*
X126513566Y-92572915D01*
X126578356Y-92543884D01*
X126648556Y-92554489D01*
X126701878Y-92601364D01*
X126721393Y-92669626D01*
X126718805Y-92693423D01*
X126718246Y-92695384D01*
X126717643Y-92699619D01*
X126717642Y-92699625D01*
X126693906Y-92866408D01*
X126677258Y-92983381D01*
X126676789Y-93072966D01*
X126676176Y-93190127D01*
X126675735Y-93274277D01*
X126676294Y-93278521D01*
X126676294Y-93278525D01*
X126681630Y-93319054D01*
X126670691Y-93389202D01*
X126623563Y-93442301D01*
X126556708Y-93461500D01*
X124567069Y-93461500D01*
X124548121Y-93460067D01*
X124540780Y-93458950D01*
X124533883Y-93457901D01*
X124533881Y-93457901D01*
X124526651Y-93456801D01*
X124519359Y-93457394D01*
X124519356Y-93457394D01*
X124473982Y-93461085D01*
X124463767Y-93461500D01*
X124455707Y-93461500D01*
X124442417Y-93463049D01*
X124427493Y-93464789D01*
X124423118Y-93465222D01*
X124357661Y-93470546D01*
X124357658Y-93470547D01*
X124350363Y-93471140D01*
X124343399Y-93473396D01*
X124337440Y-93474587D01*
X124331585Y-93475971D01*
X124324319Y-93476818D01*
X124255673Y-93501735D01*
X124251545Y-93503152D01*
X124189064Y-93523393D01*
X124189062Y-93523394D01*
X124182101Y-93525649D01*
X124175846Y-93529445D01*
X124170372Y-93531951D01*
X124164942Y-93534670D01*
X124158063Y-93537167D01*
X124097016Y-93577191D01*
X124093327Y-93579518D01*
X124084927Y-93584616D01*
X124035693Y-93614491D01*
X124035688Y-93614495D01*
X124030892Y-93617405D01*
X124022516Y-93624803D01*
X124022493Y-93624777D01*
X124019503Y-93627426D01*
X124016264Y-93630134D01*
X124010148Y-93634144D01*
X124005121Y-93639451D01*
X124005117Y-93639454D01*
X123956872Y-93690383D01*
X123954494Y-93692825D01*
X122221089Y-95426230D01*
X122206677Y-95438616D01*
X122195082Y-95447149D01*
X122195077Y-95447154D01*
X122189182Y-95451492D01*
X122184443Y-95457070D01*
X122184440Y-95457073D01*
X122154965Y-95491768D01*
X122148035Y-95499284D01*
X122142340Y-95504979D01*
X122140060Y-95507861D01*
X122124719Y-95527251D01*
X122121928Y-95530655D01*
X122079409Y-95580703D01*
X122074667Y-95586285D01*
X122071339Y-95592801D01*
X122067972Y-95597850D01*
X122064805Y-95602979D01*
X122060266Y-95608716D01*
X122029345Y-95674875D01*
X122027442Y-95678769D01*
X121994231Y-95743808D01*
X121992492Y-95750916D01*
X121990393Y-95756559D01*
X121988476Y-95762322D01*
X121985378Y-95768950D01*
X121983888Y-95776112D01*
X121983888Y-95776113D01*
X121970514Y-95840412D01*
X121969544Y-95844696D01*
X121952192Y-95915610D01*
X121951500Y-95926764D01*
X121951464Y-95926762D01*
X121951225Y-95930755D01*
X121950851Y-95934947D01*
X121949360Y-95942115D01*
X121949558Y-95949432D01*
X121951454Y-96019521D01*
X121951500Y-96022928D01*
X121951500Y-98422930D01*
X121950067Y-98441880D01*
X121946801Y-98463349D01*
X121947394Y-98470641D01*
X121947394Y-98470644D01*
X121951085Y-98516018D01*
X121951500Y-98526233D01*
X121951500Y-98534293D01*
X121951925Y-98537937D01*
X121954789Y-98562507D01*
X121955222Y-98566882D01*
X121957400Y-98593653D01*
X121961140Y-98639637D01*
X121963396Y-98646601D01*
X121964587Y-98652560D01*
X121965971Y-98658415D01*
X121966818Y-98665681D01*
X121991735Y-98734327D01*
X121993152Y-98738455D01*
X122015649Y-98807899D01*
X122019445Y-98814154D01*
X122021951Y-98819628D01*
X122024670Y-98825058D01*
X122027167Y-98831937D01*
X122031180Y-98838057D01*
X122031180Y-98838058D01*
X122067186Y-98892976D01*
X122069523Y-98896680D01*
X122107405Y-98959107D01*
X122111121Y-98963315D01*
X122111122Y-98963316D01*
X122114803Y-98967484D01*
X122114776Y-98967508D01*
X122117429Y-98970500D01*
X122120132Y-98973733D01*
X122124144Y-98979852D01*
X122129456Y-98984884D01*
X122180383Y-99033128D01*
X122182825Y-99035506D01*
X122614230Y-99466911D01*
X122626616Y-99481323D01*
X122635149Y-99492918D01*
X122635154Y-99492923D01*
X122639492Y-99498818D01*
X122645070Y-99503557D01*
X122645073Y-99503560D01*
X122679768Y-99533035D01*
X122687284Y-99539965D01*
X122692979Y-99545660D01*
X122695861Y-99547940D01*
X122715251Y-99563281D01*
X122718655Y-99566072D01*
X122768703Y-99608591D01*
X122774285Y-99613333D01*
X122780801Y-99616661D01*
X122785850Y-99620028D01*
X122790979Y-99623195D01*
X122796716Y-99627734D01*
X122862875Y-99658655D01*
X122866769Y-99660558D01*
X122931808Y-99693769D01*
X122938916Y-99695508D01*
X122944559Y-99697607D01*
X122950322Y-99699524D01*
X122956950Y-99702622D01*
X122964112Y-99704112D01*
X122964113Y-99704112D01*
X123028412Y-99717486D01*
X123032696Y-99718456D01*
X123103610Y-99735808D01*
X123109212Y-99736156D01*
X123109215Y-99736156D01*
X123114764Y-99736500D01*
X123114762Y-99736536D01*
X123118755Y-99736775D01*
X123122947Y-99737149D01*
X123130115Y-99738640D01*
X123207520Y-99736546D01*
X123210928Y-99736500D01*
X123419198Y-99736500D01*
X123487319Y-99756502D01*
X123515716Y-99781504D01*
X123519094Y-99785529D01*
X123522251Y-99790038D01*
X123637118Y-99904905D01*
X123671144Y-99967217D01*
X123666079Y-100038032D01*
X123637118Y-100083095D01*
X123522251Y-100197962D01*
X123519094Y-100202470D01*
X123519092Y-100202473D01*
X123399101Y-100373838D01*
X123395944Y-100378347D01*
X123393621Y-100383329D01*
X123393618Y-100383334D01*
X123376243Y-100420595D01*
X123302880Y-100577924D01*
X123245885Y-100790629D01*
X123226693Y-101010000D01*
X123245885Y-101229371D01*
X123302880Y-101442076D01*
X123318535Y-101475648D01*
X123393618Y-101636666D01*
X123393621Y-101636671D01*
X123395944Y-101641653D01*
X123399100Y-101646160D01*
X123399101Y-101646162D01*
X123515297Y-101812106D01*
X123522251Y-101822038D01*
X123637118Y-101936905D01*
X123671144Y-101999217D01*
X123666079Y-102070032D01*
X123637118Y-102115095D01*
X123522251Y-102229962D01*
X123519094Y-102234470D01*
X123519092Y-102234473D01*
X123399101Y-102405838D01*
X123395944Y-102410347D01*
X123393621Y-102415329D01*
X123393618Y-102415334D01*
X123371363Y-102463061D01*
X123302880Y-102609924D01*
X123245885Y-102822629D01*
X123226693Y-103042000D01*
X123245885Y-103261371D01*
X123302880Y-103474076D01*
X123346415Y-103567438D01*
X123393618Y-103668666D01*
X123393621Y-103668671D01*
X123395944Y-103673653D01*
X123399100Y-103678160D01*
X123399101Y-103678162D01*
X123488474Y-103805799D01*
X123522251Y-103854038D01*
X123677962Y-104009749D01*
X123682471Y-104012906D01*
X123682473Y-104012908D01*
X123757241Y-104065261D01*
X123858346Y-104136056D01*
X124057924Y-104229120D01*
X124270629Y-104286115D01*
X124490000Y-104305307D01*
X124709371Y-104286115D01*
X124922076Y-104229120D01*
X125121654Y-104136056D01*
X125222759Y-104065261D01*
X125297527Y-104012908D01*
X125297529Y-104012906D01*
X125302038Y-104009749D01*
X125457749Y-103854038D01*
X125491527Y-103805799D01*
X125580899Y-103678162D01*
X125580900Y-103678160D01*
X125584056Y-103673653D01*
X125586379Y-103668671D01*
X125586382Y-103668666D01*
X125633585Y-103567438D01*
X125677120Y-103474076D01*
X125684223Y-103447567D01*
X143880911Y-103447567D01*
X143897522Y-103735645D01*
X143898347Y-103739850D01*
X143898348Y-103739858D01*
X143921514Y-103857935D01*
X143953075Y-104018804D01*
X143954462Y-104022854D01*
X143954463Y-104022859D01*
X144045155Y-104287747D01*
X144046544Y-104291803D01*
X144176198Y-104549592D01*
X144339638Y-104787399D01*
X144533841Y-105000825D01*
X144755212Y-105185919D01*
X144758853Y-105188203D01*
X144996015Y-105336975D01*
X144996019Y-105336977D01*
X144999655Y-105339258D01*
X145003565Y-105341023D01*
X145003566Y-105341024D01*
X145258734Y-105456237D01*
X145258738Y-105456239D01*
X145262646Y-105458003D01*
X145266765Y-105459223D01*
X145535207Y-105538740D01*
X145535212Y-105538741D01*
X145539320Y-105539958D01*
X145543554Y-105540606D01*
X145543559Y-105540607D01*
X145820315Y-105582956D01*
X145820317Y-105582956D01*
X145824557Y-105583605D01*
X145971409Y-105585912D01*
X146108787Y-105588071D01*
X146108793Y-105588071D01*
X146113078Y-105588138D01*
X146399545Y-105553472D01*
X146678657Y-105480248D01*
X146945249Y-105369822D01*
X147194388Y-105224237D01*
X147246772Y-105183163D01*
X147418091Y-105048831D01*
X147421463Y-105046187D01*
X147622274Y-104838967D01*
X147624807Y-104835519D01*
X147624811Y-104835514D01*
X147790565Y-104609866D01*
X147793103Y-104606411D01*
X147823953Y-104549592D01*
X147928741Y-104356598D01*
X147928742Y-104356596D01*
X147930791Y-104352822D01*
X148032788Y-104082893D01*
X148084311Y-103857935D01*
X148096252Y-103805799D01*
X148096253Y-103805794D01*
X148097209Y-103801619D01*
X148122860Y-103514204D01*
X148123325Y-103469780D01*
X148123156Y-103467299D01*
X148121811Y-103447567D01*
X151782851Y-103447567D01*
X151799462Y-103735645D01*
X151800287Y-103739850D01*
X151800288Y-103739858D01*
X151823454Y-103857935D01*
X151855015Y-104018804D01*
X151856402Y-104022854D01*
X151856403Y-104022859D01*
X151947095Y-104287747D01*
X151948484Y-104291803D01*
X152078138Y-104549592D01*
X152241578Y-104787399D01*
X152435781Y-105000825D01*
X152657152Y-105185919D01*
X152660793Y-105188203D01*
X152897955Y-105336975D01*
X152897959Y-105336977D01*
X152901595Y-105339258D01*
X152905505Y-105341023D01*
X152905506Y-105341024D01*
X153160674Y-105456237D01*
X153160678Y-105456239D01*
X153164586Y-105458003D01*
X153168705Y-105459223D01*
X153437147Y-105538740D01*
X153437152Y-105538741D01*
X153441260Y-105539958D01*
X153445494Y-105540606D01*
X153445499Y-105540607D01*
X153722255Y-105582956D01*
X153722257Y-105582956D01*
X153726497Y-105583605D01*
X153873349Y-105585912D01*
X154010727Y-105588071D01*
X154010733Y-105588071D01*
X154015018Y-105588138D01*
X154301485Y-105553472D01*
X154580597Y-105480248D01*
X154847189Y-105369822D01*
X155096328Y-105224237D01*
X155148712Y-105183163D01*
X155320031Y-105048831D01*
X155323403Y-105046187D01*
X155524214Y-104838967D01*
X155526747Y-104835519D01*
X155526751Y-104835514D01*
X155692505Y-104609866D01*
X155695043Y-104606411D01*
X155725893Y-104549592D01*
X155830681Y-104356598D01*
X155830682Y-104356596D01*
X155832731Y-104352822D01*
X155934728Y-104082893D01*
X155986251Y-103857935D01*
X155998192Y-103805799D01*
X155998193Y-103805794D01*
X155999149Y-103801619D01*
X156024800Y-103514204D01*
X156025265Y-103469780D01*
X156025096Y-103467299D01*
X156005931Y-103186168D01*
X156005930Y-103186162D01*
X156005639Y-103181891D01*
X155992834Y-103120056D01*
X155947992Y-102903527D01*
X155947123Y-102899330D01*
X155850801Y-102627324D01*
X155718454Y-102370907D01*
X155552533Y-102134825D01*
X155446319Y-102020525D01*
X155359027Y-101926587D01*
X155359024Y-101926584D01*
X155356106Y-101923444D01*
X155132809Y-101740678D01*
X155081497Y-101709234D01*
X154890424Y-101592143D01*
X154890416Y-101592139D01*
X154886774Y-101589907D01*
X154882857Y-101588188D01*
X154882854Y-101588186D01*
X154766017Y-101536899D01*
X154622553Y-101473923D01*
X154618425Y-101472747D01*
X154618422Y-101472746D01*
X154528253Y-101447061D01*
X154345036Y-101394870D01*
X154340794Y-101394266D01*
X154340788Y-101394265D01*
X154063609Y-101354817D01*
X154059358Y-101354212D01*
X153907273Y-101353416D01*
X153775091Y-101352723D01*
X153775084Y-101352723D01*
X153770805Y-101352701D01*
X153766561Y-101353260D01*
X153766557Y-101353260D01*
X153640882Y-101369805D01*
X153484716Y-101390365D01*
X153480576Y-101391498D01*
X153480574Y-101391498D01*
X153403280Y-101412643D01*
X153206387Y-101466507D01*
X153184956Y-101475648D01*
X152944918Y-101578033D01*
X152944914Y-101578035D01*
X152940966Y-101579719D01*
X152837482Y-101641653D01*
X152697047Y-101725701D01*
X152697043Y-101725704D01*
X152693365Y-101727905D01*
X152690022Y-101730583D01*
X152690018Y-101730586D01*
X152595102Y-101806629D01*
X152468167Y-101908323D01*
X152465223Y-101911425D01*
X152465219Y-101911429D01*
X152402284Y-101977749D01*
X152269537Y-102117635D01*
X152101152Y-102351967D01*
X151966128Y-102606984D01*
X151964656Y-102611007D01*
X151964654Y-102611011D01*
X151880148Y-102841935D01*
X151866963Y-102877966D01*
X151805491Y-103159899D01*
X151782851Y-103447567D01*
X148121811Y-103447567D01*
X148103991Y-103186168D01*
X148103990Y-103186162D01*
X148103699Y-103181891D01*
X148090894Y-103120056D01*
X148046052Y-102903527D01*
X148045183Y-102899330D01*
X147948861Y-102627324D01*
X147816514Y-102370907D01*
X147650593Y-102134825D01*
X147544379Y-102020525D01*
X147457087Y-101926587D01*
X147457084Y-101926584D01*
X147454166Y-101923444D01*
X147230869Y-101740678D01*
X147179557Y-101709234D01*
X146988484Y-101592143D01*
X146988476Y-101592139D01*
X146984834Y-101589907D01*
X146980917Y-101588188D01*
X146980914Y-101588186D01*
X146864077Y-101536899D01*
X146720613Y-101473923D01*
X146716485Y-101472747D01*
X146716482Y-101472746D01*
X146626313Y-101447061D01*
X146443096Y-101394870D01*
X146438854Y-101394266D01*
X146438848Y-101394265D01*
X146161669Y-101354817D01*
X146157418Y-101354212D01*
X146005333Y-101353416D01*
X145873151Y-101352723D01*
X145873144Y-101352723D01*
X145868865Y-101352701D01*
X145864621Y-101353260D01*
X145864617Y-101353260D01*
X145738942Y-101369805D01*
X145582776Y-101390365D01*
X145578636Y-101391498D01*
X145578634Y-101391498D01*
X145501340Y-101412643D01*
X145304447Y-101466507D01*
X145283016Y-101475648D01*
X145042978Y-101578033D01*
X145042974Y-101578035D01*
X145039026Y-101579719D01*
X144935542Y-101641653D01*
X144795107Y-101725701D01*
X144795103Y-101725704D01*
X144791425Y-101727905D01*
X144788082Y-101730583D01*
X144788078Y-101730586D01*
X144693162Y-101806629D01*
X144566227Y-101908323D01*
X144563283Y-101911425D01*
X144563279Y-101911429D01*
X144500344Y-101977749D01*
X144367597Y-102117635D01*
X144199212Y-102351967D01*
X144064188Y-102606984D01*
X144062716Y-102611007D01*
X144062714Y-102611011D01*
X143978208Y-102841935D01*
X143965023Y-102877966D01*
X143903551Y-103159899D01*
X143880911Y-103447567D01*
X125684223Y-103447567D01*
X125720520Y-103312107D01*
X125757472Y-103251485D01*
X125821333Y-103220463D01*
X125874838Y-103223012D01*
X126045316Y-103268692D01*
X126045323Y-103268693D01*
X126050629Y-103270115D01*
X126270000Y-103289307D01*
X126489371Y-103270115D01*
X126702076Y-103213120D01*
X126901654Y-103120056D01*
X127082038Y-102993749D01*
X127237749Y-102838038D01*
X127244704Y-102828106D01*
X127360899Y-102662162D01*
X127360900Y-102662160D01*
X127364056Y-102657653D01*
X127366379Y-102652671D01*
X127366382Y-102652666D01*
X127454795Y-102463061D01*
X127457120Y-102458076D01*
X127514115Y-102245371D01*
X127533307Y-102026000D01*
X127514115Y-101806629D01*
X127457120Y-101593924D01*
X127388637Y-101447061D01*
X127366382Y-101399334D01*
X127366379Y-101399329D01*
X127364056Y-101394347D01*
X127248539Y-101229371D01*
X127240908Y-101218473D01*
X127240906Y-101218470D01*
X127237749Y-101213962D01*
X127082038Y-101058251D01*
X127077527Y-101055092D01*
X126906158Y-100935097D01*
X126906152Y-100935093D01*
X126901654Y-100931944D01*
X126822631Y-100895095D01*
X126786786Y-100869996D01*
X125999885Y-100083095D01*
X125965859Y-100020783D01*
X125967694Y-99995132D01*
X126634408Y-99995132D01*
X126634539Y-99996966D01*
X126638790Y-100003580D01*
X127308391Y-100673180D01*
X127320161Y-100679607D01*
X127332176Y-100670311D01*
X127360466Y-100629907D01*
X127365946Y-100620417D01*
X127454326Y-100430887D01*
X127458072Y-100420595D01*
X127512196Y-100218599D01*
X127514099Y-100207804D01*
X127532326Y-99999475D01*
X127532326Y-99988525D01*
X127514099Y-99780196D01*
X127512196Y-99769401D01*
X127458072Y-99567405D01*
X127454326Y-99557113D01*
X127365946Y-99367583D01*
X127360466Y-99358093D01*
X127331589Y-99316851D01*
X127321113Y-99308477D01*
X127307666Y-99315545D01*
X126642021Y-99981189D01*
X126634408Y-99995132D01*
X125967694Y-99995132D01*
X125970924Y-99949968D01*
X125999885Y-99904905D01*
X126270000Y-99634790D01*
X126786784Y-99118005D01*
X126822630Y-99092905D01*
X126896670Y-99058380D01*
X126896669Y-99058380D01*
X126901654Y-99056056D01*
X126906152Y-99052907D01*
X126906158Y-99052903D01*
X127077527Y-98932908D01*
X127077529Y-98932906D01*
X127082038Y-98929749D01*
X127237749Y-98774038D01*
X127262665Y-98738455D01*
X127360899Y-98598162D01*
X127360900Y-98598160D01*
X127364056Y-98593653D01*
X127366379Y-98588671D01*
X127366382Y-98588666D01*
X127421416Y-98470644D01*
X127457120Y-98394076D01*
X127514115Y-98181371D01*
X127533307Y-97962000D01*
X127514115Y-97742629D01*
X127457120Y-97529924D01*
X127413585Y-97436562D01*
X127366382Y-97335334D01*
X127366379Y-97335329D01*
X127364056Y-97330347D01*
X127308516Y-97251028D01*
X127285829Y-97183756D01*
X127303114Y-97114896D01*
X127336165Y-97077933D01*
X127375724Y-97048285D01*
X127388285Y-97035724D01*
X127464786Y-96933649D01*
X127473324Y-96918054D01*
X127518478Y-96797606D01*
X127522105Y-96782351D01*
X127527119Y-96736198D01*
X136804274Y-96736198D01*
X136811329Y-96746171D01*
X136855351Y-96782979D01*
X136862285Y-96788016D01*
X137099391Y-96936754D01*
X137106942Y-96940803D01*
X137362049Y-97055987D01*
X137370080Y-97058974D01*
X137638457Y-97138471D01*
X137646809Y-97140338D01*
X137923498Y-97182677D01*
X137932031Y-97183393D01*
X138211901Y-97187791D01*
X138220452Y-97187343D01*
X138498327Y-97153715D01*
X138506744Y-97152110D01*
X138777486Y-97081082D01*
X138785602Y-97078351D01*
X139044206Y-96971233D01*
X139051868Y-96967430D01*
X139293541Y-96826208D01*
X139300624Y-96821394D01*
X139396653Y-96746097D01*
X139403724Y-96736198D01*
X140751434Y-96736198D01*
X140758489Y-96746171D01*
X140802511Y-96782979D01*
X140809445Y-96788016D01*
X141046551Y-96936754D01*
X141054102Y-96940803D01*
X141309209Y-97055987D01*
X141317240Y-97058974D01*
X141585617Y-97138471D01*
X141593969Y-97140338D01*
X141870658Y-97182677D01*
X141879191Y-97183393D01*
X142159061Y-97187791D01*
X142167612Y-97187343D01*
X142445487Y-97153715D01*
X142453904Y-97152110D01*
X142724646Y-97081082D01*
X142732762Y-97078351D01*
X142991366Y-96971233D01*
X142999028Y-96967430D01*
X143240701Y-96826208D01*
X143247784Y-96821394D01*
X143343813Y-96746097D01*
X143352283Y-96734239D01*
X143345766Y-96722616D01*
X142065172Y-95442022D01*
X142051228Y-95434408D01*
X142049395Y-95434539D01*
X142042780Y-95438790D01*
X140758726Y-96722844D01*
X140751434Y-96736198D01*
X139403724Y-96736198D01*
X139405123Y-96734239D01*
X139398606Y-96722616D01*
X138118012Y-95442022D01*
X138104068Y-95434408D01*
X138102235Y-95434539D01*
X138095620Y-95438790D01*
X136811566Y-96722844D01*
X136804274Y-96736198D01*
X127527119Y-96736198D01*
X127527631Y-96731486D01*
X127528000Y-96724672D01*
X127528000Y-96171173D01*
X127548002Y-96103052D01*
X127601658Y-96056559D01*
X127671932Y-96046455D01*
X127711298Y-96058956D01*
X127763808Y-96085769D01*
X127770923Y-96087510D01*
X127776578Y-96089613D01*
X127782317Y-96091522D01*
X127788950Y-96094622D01*
X127860435Y-96109491D01*
X127864701Y-96110457D01*
X127935610Y-96127808D01*
X127941212Y-96128156D01*
X127941215Y-96128156D01*
X127946764Y-96128500D01*
X127946762Y-96128535D01*
X127950734Y-96128775D01*
X127954955Y-96129152D01*
X127962115Y-96130641D01*
X128039542Y-96128546D01*
X128042950Y-96128500D01*
X132812930Y-96128500D01*
X132831880Y-96129933D01*
X132846115Y-96132099D01*
X132846119Y-96132099D01*
X132853349Y-96133199D01*
X132860641Y-96132606D01*
X132860644Y-96132606D01*
X132906018Y-96128915D01*
X132916233Y-96128500D01*
X132924293Y-96128500D01*
X132941680Y-96126473D01*
X132952507Y-96125211D01*
X132956882Y-96124778D01*
X133022339Y-96119454D01*
X133022342Y-96119453D01*
X133029637Y-96118860D01*
X133036601Y-96116604D01*
X133042560Y-96115413D01*
X133048415Y-96114029D01*
X133055681Y-96113182D01*
X133124327Y-96088265D01*
X133128455Y-96086848D01*
X133190936Y-96066607D01*
X133190938Y-96066606D01*
X133197899Y-96064351D01*
X133204154Y-96060555D01*
X133209628Y-96058049D01*
X133215058Y-96055330D01*
X133221937Y-96052833D01*
X133231665Y-96046455D01*
X133282976Y-96012814D01*
X133286680Y-96010477D01*
X133349107Y-95972595D01*
X133357484Y-95965197D01*
X133357508Y-95965224D01*
X133360500Y-95962571D01*
X133363733Y-95959868D01*
X133369852Y-95955856D01*
X133423128Y-95899617D01*
X133425506Y-95897175D01*
X134270609Y-95052072D01*
X135984799Y-95052072D01*
X136000912Y-95331514D01*
X136001985Y-95340015D01*
X136055874Y-95614687D01*
X136058087Y-95622949D01*
X136148757Y-95887773D01*
X136152073Y-95895660D01*
X136277842Y-96145726D01*
X136282199Y-96153092D01*
X136427008Y-96363790D01*
X136437261Y-96372134D01*
X136451002Y-96364988D01*
X137733178Y-95082812D01*
X137739556Y-95071132D01*
X138469608Y-95071132D01*
X138469739Y-95072965D01*
X138473990Y-95079580D01*
X139758058Y-96363648D01*
X139770268Y-96370315D01*
X139781767Y-96361626D01*
X139893282Y-96209817D01*
X139897866Y-96202594D01*
X139967536Y-96074278D01*
X140017619Y-96023956D01*
X140086957Y-96008700D01*
X140153536Y-96033352D01*
X140190832Y-96077786D01*
X140225002Y-96145726D01*
X140229359Y-96153092D01*
X140374168Y-96363790D01*
X140384421Y-96372134D01*
X140398162Y-96364988D01*
X141680338Y-95082812D01*
X141687952Y-95068868D01*
X141687821Y-95067035D01*
X141683570Y-95060420D01*
X140398917Y-93775767D01*
X140386907Y-93769209D01*
X140375167Y-93778177D01*
X140252444Y-93948964D01*
X140247925Y-93956251D01*
X140190302Y-94065082D01*
X140140750Y-94115925D01*
X140071575Y-94131907D01*
X140004742Y-94107953D01*
X139966982Y-94063913D01*
X139921191Y-93975194D01*
X139916763Y-93967882D01*
X139782625Y-93777023D01*
X139772103Y-93768643D01*
X139758715Y-93775695D01*
X138477222Y-95057188D01*
X138469608Y-95071132D01*
X137739556Y-95071132D01*
X137740792Y-95068868D01*
X137740661Y-95067035D01*
X137736410Y-95060420D01*
X136451757Y-93775767D01*
X136439747Y-93769209D01*
X136428007Y-93778177D01*
X136305284Y-93948964D01*
X136300772Y-93956240D01*
X136169791Y-94203621D01*
X136166312Y-94211435D01*
X136070119Y-94474295D01*
X136067730Y-94482518D01*
X136008100Y-94756006D01*
X136006851Y-94764462D01*
X135984888Y-95043522D01*
X135984799Y-95052072D01*
X134270609Y-95052072D01*
X136097276Y-93225405D01*
X136159588Y-93191379D01*
X136186371Y-93188500D01*
X136715156Y-93188500D01*
X136783277Y-93208502D01*
X136829770Y-93262158D01*
X136839874Y-93332432D01*
X136818448Y-93386657D01*
X136805079Y-93405795D01*
X136811475Y-93417065D01*
X138092388Y-94697978D01*
X138106332Y-94705592D01*
X138108165Y-94705461D01*
X138114780Y-94701210D01*
X139398424Y-93417566D01*
X139405615Y-93404397D01*
X139393748Y-93387807D01*
X139370384Y-93320765D01*
X139386974Y-93251734D01*
X139438252Y-93202631D01*
X139496228Y-93188500D01*
X140662316Y-93188500D01*
X140730437Y-93208502D01*
X140776930Y-93262158D01*
X140787034Y-93332432D01*
X140765608Y-93386657D01*
X140752239Y-93405795D01*
X140758635Y-93417065D01*
X142039548Y-94697978D01*
X142053492Y-94705592D01*
X142055325Y-94705461D01*
X142061940Y-94701210D01*
X143345584Y-93417566D01*
X143352775Y-93404397D01*
X143340908Y-93387807D01*
X143317544Y-93320765D01*
X143334134Y-93251734D01*
X143385412Y-93202631D01*
X143443388Y-93188500D01*
X143863629Y-93188500D01*
X143931750Y-93208502D01*
X143952724Y-93225405D01*
X144324342Y-93597023D01*
X144358368Y-93659335D01*
X144353303Y-93730150D01*
X144337570Y-93759641D01*
X144199212Y-93952187D01*
X144139438Y-94065082D01*
X144138438Y-94066970D01*
X144088885Y-94117813D01*
X144019711Y-94133795D01*
X143952877Y-94109842D01*
X143915117Y-94065801D01*
X143868351Y-93975194D01*
X143863923Y-93967882D01*
X143729785Y-93777023D01*
X143719263Y-93768643D01*
X143705875Y-93775695D01*
X142424382Y-95057188D01*
X142416768Y-95071132D01*
X142416899Y-95072965D01*
X142421150Y-95079580D01*
X143705218Y-96363648D01*
X143717428Y-96370315D01*
X143728927Y-96361626D01*
X143840442Y-96209817D01*
X143845026Y-96202594D01*
X143915724Y-96072384D01*
X143965807Y-96022063D01*
X144035145Y-96006806D01*
X144101724Y-96031458D01*
X144139020Y-96075892D01*
X144168226Y-96133962D01*
X144176198Y-96149812D01*
X144178628Y-96153347D01*
X144323261Y-96363790D01*
X144339638Y-96387619D01*
X144533841Y-96601045D01*
X144755212Y-96786139D01*
X144758853Y-96788423D01*
X144996015Y-96937195D01*
X144996019Y-96937197D01*
X144999655Y-96939478D01*
X145003565Y-96941243D01*
X145003566Y-96941244D01*
X145258734Y-97056457D01*
X145258738Y-97056459D01*
X145262646Y-97058223D01*
X145330597Y-97078351D01*
X145535207Y-97138960D01*
X145535212Y-97138961D01*
X145539320Y-97140178D01*
X145543554Y-97140826D01*
X145543559Y-97140827D01*
X145820315Y-97183176D01*
X145820317Y-97183176D01*
X145824557Y-97183825D01*
X145971409Y-97186132D01*
X146108787Y-97188291D01*
X146108793Y-97188291D01*
X146113078Y-97188358D01*
X146399545Y-97153692D01*
X146678657Y-97080468D01*
X146945249Y-96970042D01*
X147007529Y-96933649D01*
X147190690Y-96826618D01*
X147190691Y-96826618D01*
X147194388Y-96824457D01*
X147200713Y-96819498D01*
X147418091Y-96649051D01*
X147421463Y-96646407D01*
X147622274Y-96439187D01*
X147624807Y-96435739D01*
X147624811Y-96435734D01*
X147790565Y-96210086D01*
X147793103Y-96206631D01*
X147822034Y-96153347D01*
X147928741Y-95956818D01*
X147928742Y-95956816D01*
X147930791Y-95953042D01*
X148032788Y-95683113D01*
X148068486Y-95527251D01*
X148096252Y-95406019D01*
X148096253Y-95406014D01*
X148097209Y-95401839D01*
X148122860Y-95114424D01*
X148123325Y-95070000D01*
X148103699Y-94782111D01*
X148087826Y-94705461D01*
X148046052Y-94503747D01*
X148045183Y-94499550D01*
X147948861Y-94227544D01*
X147816514Y-93971127D01*
X147806052Y-93956240D01*
X147733554Y-93853086D01*
X147650593Y-93735045D01*
X147551475Y-93628381D01*
X147457087Y-93526807D01*
X147457084Y-93526804D01*
X147454166Y-93523664D01*
X147230869Y-93340898D01*
X147179557Y-93309454D01*
X146988484Y-93192363D01*
X146988476Y-93192359D01*
X146984834Y-93190127D01*
X146980917Y-93188408D01*
X146980914Y-93188406D01*
X146864077Y-93137119D01*
X146720613Y-93074143D01*
X146716485Y-93072967D01*
X146716482Y-93072966D01*
X146630633Y-93048511D01*
X146443096Y-92995090D01*
X146438854Y-92994486D01*
X146438848Y-92994485D01*
X146161669Y-92955037D01*
X146157418Y-92954432D01*
X145877176Y-92952965D01*
X145809163Y-92932607D01*
X145788743Y-92916062D01*
X144813770Y-91941089D01*
X144801384Y-91926677D01*
X144792851Y-91915082D01*
X144792846Y-91915077D01*
X144788508Y-91909182D01*
X144782930Y-91904443D01*
X144782927Y-91904440D01*
X144748232Y-91874965D01*
X144740716Y-91868035D01*
X144735021Y-91862340D01*
X144718736Y-91849456D01*
X144712749Y-91844719D01*
X144709345Y-91841928D01*
X144659297Y-91799409D01*
X144659295Y-91799408D01*
X144653715Y-91794667D01*
X144647199Y-91791339D01*
X144642150Y-91787972D01*
X144637021Y-91784805D01*
X144631284Y-91780266D01*
X144565125Y-91749345D01*
X144561225Y-91747439D01*
X144496192Y-91714231D01*
X144489084Y-91712492D01*
X144483441Y-91710393D01*
X144477678Y-91708476D01*
X144471050Y-91705378D01*
X144399583Y-91690513D01*
X144395299Y-91689543D01*
X144324390Y-91672192D01*
X144318788Y-91671844D01*
X144318785Y-91671844D01*
X144313236Y-91671500D01*
X144313238Y-91671464D01*
X144309245Y-91671225D01*
X144305053Y-91670851D01*
X144297885Y-91669360D01*
X144234120Y-91671085D01*
X144220479Y-91671454D01*
X144217072Y-91671500D01*
X135887070Y-91671500D01*
X135868120Y-91670067D01*
X135853885Y-91667901D01*
X135853881Y-91667901D01*
X135846651Y-91666801D01*
X135839359Y-91667394D01*
X135839356Y-91667394D01*
X135793982Y-91671085D01*
X135783767Y-91671500D01*
X135775707Y-91671500D01*
X135772073Y-91671924D01*
X135772067Y-91671924D01*
X135761253Y-91673185D01*
X135747480Y-91674791D01*
X135743132Y-91675221D01*
X135670364Y-91681140D01*
X135663403Y-91683395D01*
X135657463Y-91684582D01*
X135651588Y-91685971D01*
X135644319Y-91686818D01*
X135575670Y-91711736D01*
X135571542Y-91713153D01*
X135509064Y-91733393D01*
X135509062Y-91733394D01*
X135502101Y-91735649D01*
X135495846Y-91739445D01*
X135490372Y-91741951D01*
X135484942Y-91744670D01*
X135478063Y-91747167D01*
X135471943Y-91751180D01*
X135471942Y-91751180D01*
X135417024Y-91787186D01*
X135413320Y-91789523D01*
X135350893Y-91827405D01*
X135342516Y-91834803D01*
X135342492Y-91834776D01*
X135339500Y-91837429D01*
X135336267Y-91840132D01*
X135330148Y-91844144D01*
X135301781Y-91874089D01*
X135276872Y-91900383D01*
X135274494Y-91902825D01*
X132602724Y-94574595D01*
X132540412Y-94608621D01*
X132513629Y-94611500D01*
X130628617Y-94611500D01*
X130560496Y-94591498D01*
X130514003Y-94537842D01*
X130503899Y-94467568D01*
X130531114Y-94405693D01*
X130550423Y-94382103D01*
X130550427Y-94382098D01*
X130553139Y-94378784D01*
X130705133Y-94130752D01*
X130822059Y-93864386D01*
X130901754Y-93584616D01*
X130902479Y-93579528D01*
X130942137Y-93300870D01*
X130942742Y-93296619D01*
X130943913Y-93072966D01*
X130944243Y-93010009D01*
X130944243Y-93010003D01*
X130944265Y-93005723D01*
X130943228Y-92997841D01*
X130922410Y-92839717D01*
X130906295Y-92717313D01*
X130903881Y-92708487D01*
X130849100Y-92508243D01*
X130829535Y-92436724D01*
X130787364Y-92337856D01*
X130717090Y-92173100D01*
X130717088Y-92173096D01*
X130715404Y-92169148D01*
X130566015Y-91919538D01*
X130557719Y-91909182D01*
X130394441Y-91705378D01*
X130384133Y-91692511D01*
X130209818Y-91527092D01*
X130176231Y-91495219D01*
X130176228Y-91495217D01*
X130173122Y-91492269D01*
X129936887Y-91322517D01*
X129754988Y-91226207D01*
X129683587Y-91188402D01*
X129683586Y-91188401D01*
X129679800Y-91186397D01*
X129675777Y-91184925D01*
X129675773Y-91184923D01*
X129410649Y-91087901D01*
X129410647Y-91087900D01*
X129406618Y-91086426D01*
X129122396Y-91024456D01*
X129071420Y-91020444D01*
X128896703Y-91006693D01*
X128896696Y-91006693D01*
X128894247Y-91006500D01*
X128736879Y-91006500D01*
X128734743Y-91006646D01*
X128734732Y-91006646D01*
X128524051Y-91021009D01*
X128524045Y-91021010D01*
X128519774Y-91021301D01*
X128515579Y-91022170D01*
X128515577Y-91022170D01*
X128500130Y-91025369D01*
X128234919Y-91080291D01*
X127960705Y-91177395D01*
X127702207Y-91310816D01*
X127698706Y-91313277D01*
X127698702Y-91313279D01*
X127685558Y-91322517D01*
X127464208Y-91478085D01*
X127432217Y-91507813D01*
X127256069Y-91671500D01*
X127251112Y-91676106D01*
X127248396Y-91679424D01*
X127245457Y-91682554D01*
X127244669Y-91681814D01*
X127190054Y-91719112D01*
X127119085Y-91721098D01*
X127058309Y-91684400D01*
X127027021Y-91620669D01*
X127025576Y-91589370D01*
X127030478Y-91527092D01*
X127043628Y-91360000D01*
X127023146Y-91099751D01*
X127021992Y-91094944D01*
X127021991Y-91094938D01*
X126968285Y-90871240D01*
X126962204Y-90845911D01*
X126939936Y-90792150D01*
X126890465Y-90672718D01*
X126882876Y-90602128D01*
X126914655Y-90538641D01*
X126975713Y-90502414D01*
X127006874Y-90498500D01*
X157486832Y-90498499D01*
X157712159Y-90498499D01*
X157715281Y-90498538D01*
G37*
%TD.AperFunction*%
%TD*%
M02*
