%TF.GenerationSoftware,KiCad,Pcbnew,(6.0.5-0)*%
%TF.CreationDate,2022-08-12T15:30:33+02:00*%
%TF.ProjectId,OpenOBDPower,4f70656e-4f42-4445-906f-7765722e6b69,rev?*%
%TF.SameCoordinates,Original*%
%TF.FileFunction,Legend,Top*%
%TF.FilePolarity,Positive*%
%FSLAX46Y46*%
G04 Gerber Fmt 4.6, Leading zero omitted, Abs format (unit mm)*
G04 Created by KiCad (PCBNEW (6.0.5-0)) date 2022-08-12 15:30:33*
%MOMM*%
%LPD*%
G01*
G04 APERTURE LIST*
%ADD10C,0.150000*%
%ADD11C,0.120000*%
%ADD12C,3.215640*%
%ADD13C,3.250000*%
%ADD14R,1.500000X1.500000*%
%ADD15C,1.500000*%
%ADD16C,2.300000*%
G04 APERTURE END LIST*
D10*
%TO.C,M1*%
X133849428Y-96583714D02*
X132325428Y-96583714D01*
X133414000Y-96075714D01*
X132325428Y-95567714D01*
X133849428Y-95567714D01*
X133849428Y-94043714D02*
X133849428Y-94914571D01*
X133849428Y-94479142D02*
X132325428Y-94479142D01*
X132543142Y-94624285D01*
X132688285Y-94769428D01*
X132760857Y-94914571D01*
X158145428Y-101524857D02*
X158145428Y-101234571D01*
X158218000Y-101089428D01*
X158363142Y-100944285D01*
X158653428Y-100871714D01*
X159161428Y-100871714D01*
X159451714Y-100944285D01*
X159596857Y-101089428D01*
X159669428Y-101234571D01*
X159669428Y-101524857D01*
X159596857Y-101670000D01*
X159451714Y-101815142D01*
X159161428Y-101887714D01*
X158653428Y-101887714D01*
X158363142Y-101815142D01*
X158218000Y-101670000D01*
X158145428Y-101524857D01*
X158871142Y-99710571D02*
X158943714Y-99492857D01*
X159016285Y-99420285D01*
X159161428Y-99347714D01*
X159379142Y-99347714D01*
X159524285Y-99420285D01*
X159596857Y-99492857D01*
X159669428Y-99638000D01*
X159669428Y-100218571D01*
X158145428Y-100218571D01*
X158145428Y-99710571D01*
X158218000Y-99565428D01*
X158290571Y-99492857D01*
X158435714Y-99420285D01*
X158580857Y-99420285D01*
X158726000Y-99492857D01*
X158798571Y-99565428D01*
X158871142Y-99710571D01*
X158871142Y-100218571D01*
X159669428Y-98694571D02*
X158145428Y-98694571D01*
X158145428Y-98331714D01*
X158218000Y-98114000D01*
X158363142Y-97968857D01*
X158508285Y-97896285D01*
X158798571Y-97823714D01*
X159016285Y-97823714D01*
X159306571Y-97896285D01*
X159451714Y-97968857D01*
X159596857Y-98114000D01*
X159669428Y-98331714D01*
X159669428Y-98694571D01*
X159669428Y-97170571D02*
X158145428Y-97170571D01*
X159669428Y-96444857D02*
X158145428Y-96444857D01*
%TO.C,J1*%
X132612380Y-100083333D02*
X133326666Y-100083333D01*
X133469523Y-100130952D01*
X133564761Y-100226190D01*
X133612380Y-100369047D01*
X133612380Y-100464285D01*
X133612380Y-99083333D02*
X133612380Y-99654761D01*
X133612380Y-99369047D02*
X132612380Y-99369047D01*
X132755238Y-99464285D01*
X132850476Y-99559523D01*
X132898095Y-99654761D01*
D11*
X118410000Y-107855000D02*
X123970000Y-107855000D01*
X126470000Y-90430000D02*
X127470000Y-90430000D01*
X127470000Y-90430000D02*
X126970000Y-90930000D01*
X126970000Y-90930000D02*
X126470000Y-90430000D01*
X118410000Y-91125000D02*
X123970000Y-91125000D01*
X134380000Y-91125000D02*
X126770000Y-91125000D01*
X118410000Y-91170000D02*
X118410000Y-107855000D01*
X134380000Y-91170000D02*
X134380000Y-107810000D01*
X134380000Y-107855000D02*
X126770000Y-107855000D01*
%TD*%
D12*
%TO.C,M1*%
X138105200Y-95070000D03*
X142052360Y-95070000D03*
X146002060Y-95070000D03*
X146002060Y-103469780D03*
X153904000Y-103469780D03*
%TD*%
%LPC*%
%TO.C,M1*%
X138105200Y-95070000D03*
X142052360Y-95070000D03*
X146002060Y-95070000D03*
X146002060Y-103469780D03*
X153904000Y-103469780D03*
%TD*%
D13*
%TO.C,J1*%
X128810000Y-105840000D03*
X128810000Y-93140000D03*
D14*
X126270000Y-95930000D03*
D15*
X124490000Y-96946000D03*
X126270000Y-97962000D03*
X124490000Y-98978000D03*
X126270000Y-99994000D03*
X124490000Y-101010000D03*
X126270000Y-102026000D03*
X124490000Y-103042000D03*
D16*
X125380000Y-107620000D03*
X125380000Y-91360000D03*
%TD*%
M02*
