%TF.GenerationSoftware,KiCad,Pcbnew,(6.0.5-0)*%
%TF.CreationDate,2022-06-18T16:55:17+02:00*%
%TF.ProjectId,OpenOBDPower,4f70656e-4f42-4445-906f-7765722e6b69,rev?*%
%TF.SameCoordinates,Original*%
%TF.FileFunction,Copper,L1,Top*%
%TF.FilePolarity,Positive*%
%FSLAX46Y46*%
G04 Gerber Fmt 4.6, Leading zero omitted, Abs format (unit mm)*
G04 Created by KiCad (PCBNEW (6.0.5-0)) date 2022-06-18 16:55:17*
%MOMM*%
%LPD*%
G01*
G04 APERTURE LIST*
%TA.AperFunction,ComponentPad*%
%ADD10C,3.215640*%
%TD*%
%TA.AperFunction,ComponentPad*%
%ADD11R,1.500000X1.500000*%
%TD*%
%TA.AperFunction,ComponentPad*%
%ADD12C,1.500000*%
%TD*%
%TA.AperFunction,ComponentPad*%
%ADD13C,2.300000*%
%TD*%
%TA.AperFunction,Conductor*%
%ADD14C,0.500000*%
%TD*%
%TA.AperFunction,Conductor*%
%ADD15C,2.000000*%
%TD*%
%TA.AperFunction,Conductor*%
%ADD16C,1.200000*%
%TD*%
%TA.AperFunction,Conductor*%
%ADD17C,0.250000*%
%TD*%
G04 APERTURE END LIST*
D10*
%TO.P,M1,4,CHASGND*%
%TO.N,GND*%
X138105200Y-95070000D03*
%TO.P,M1,5,SIGGND*%
X142052360Y-95070000D03*
%TO.P,M1,6,CANHIGH*%
%TO.N,CAN_H*%
X146002060Y-95070000D03*
%TO.P,M1,14,CANLOW*%
%TO.N,CAN_L*%
X146002060Y-103469780D03*
%TO.P,M1,16,BATTPOWER*%
%TO.N,+12V*%
X153904000Y-103469780D03*
%TD*%
D11*
%TO.P,J1,1*%
%TO.N,GND*%
X126270000Y-95930000D03*
D12*
%TO.P,J1,2*%
%TO.N,CAN_L*%
X124490000Y-96946000D03*
%TO.P,J1,3*%
%TO.N,unconnected-(J1-Pad3)*%
X126270000Y-97962000D03*
%TO.P,J1,4*%
%TO.N,CAN_H*%
X124490000Y-98978000D03*
%TO.P,J1,5*%
%TO.N,GND*%
X126270000Y-99994000D03*
%TO.P,J1,6*%
%TO.N,unconnected-(J1-Pad6)*%
X124490000Y-101010000D03*
%TO.P,J1,7*%
%TO.N,+12V*%
X126270000Y-102026000D03*
%TO.P,J1,8*%
X124490000Y-103042000D03*
D13*
%TO.P,J1,SH*%
%TO.N,N/C*%
X125380000Y-107620000D03*
X125380000Y-91360000D03*
%TD*%
D14*
%TO.N,CAN_L*%
X144751840Y-104720000D02*
X132220000Y-104720000D01*
X122700000Y-98736000D02*
X124490000Y-96946000D01*
X122700000Y-103880000D02*
X122700000Y-98736000D01*
X123830000Y-105010000D02*
X122700000Y-103880000D01*
X131030000Y-103530000D02*
X127030000Y-103530000D01*
X132220000Y-104720000D02*
X131030000Y-103530000D01*
X125550000Y-105010000D02*
X123830000Y-105010000D01*
X127030000Y-103530000D02*
X125550000Y-105010000D01*
X146002060Y-103469780D02*
X144751840Y-104720000D01*
D15*
%TO.N,+12V*%
X129569620Y-99960380D02*
X150394600Y-99960380D01*
D16*
X125254000Y-103042000D02*
X126270000Y-102026000D01*
D15*
X150394600Y-99960380D02*
X153904000Y-103469780D01*
D16*
X124490000Y-103042000D02*
X125254000Y-103042000D01*
D15*
X128330000Y-101200000D02*
X129569620Y-99960380D01*
D17*
X128330000Y-101200000D02*
X128330000Y-102030000D01*
D16*
X128330000Y-101200000D02*
X127504000Y-102026000D01*
X127504000Y-102026000D02*
X126270000Y-102026000D01*
%TD*%
%TA.AperFunction,Conductor*%
%TO.N,GND*%
G36*
X157715281Y-90498538D02*
G01*
X157722442Y-90498716D01*
X157840481Y-90501642D01*
X157846670Y-90501948D01*
X157963172Y-90510615D01*
X157969350Y-90511229D01*
X158084848Y-90525575D01*
X158090945Y-90526484D01*
X158205305Y-90546439D01*
X158211326Y-90547643D01*
X158324256Y-90573108D01*
X158330224Y-90574608D01*
X158441609Y-90605517D01*
X158447478Y-90607301D01*
X158557098Y-90643571D01*
X158562869Y-90645637D01*
X158613336Y-90665114D01*
X158670525Y-90687185D01*
X158676201Y-90689537D01*
X158781705Y-90736284D01*
X158787261Y-90738909D01*
X158890412Y-90790770D01*
X158895841Y-90793668D01*
X158996425Y-90850554D01*
X159001706Y-90853713D01*
X159078972Y-90902546D01*
X159099597Y-90915581D01*
X159104712Y-90918992D01*
X159199649Y-90985720D01*
X159204618Y-90989398D01*
X159273927Y-91043390D01*
X159296432Y-91060922D01*
X159301236Y-91064858D01*
X159389749Y-91141112D01*
X159394351Y-91145280D01*
X159417830Y-91167623D01*
X159479380Y-91226197D01*
X159483795Y-91230612D01*
X159564722Y-91315653D01*
X159568889Y-91320254D01*
X159645159Y-91408785D01*
X159649063Y-91413550D01*
X159707712Y-91488836D01*
X159720591Y-91505369D01*
X159724276Y-91510347D01*
X159791013Y-91605296D01*
X159794409Y-91610388D01*
X159833708Y-91672568D01*
X159853193Y-91740768D01*
X159849548Y-92258748D01*
X159847860Y-92498646D01*
X159742977Y-107403489D01*
X159722496Y-107471467D01*
X159716378Y-107480036D01*
X159649082Y-107566421D01*
X159645152Y-107571218D01*
X159568882Y-107659751D01*
X159564716Y-107664351D01*
X159562461Y-107666721D01*
X159483801Y-107749379D01*
X159479387Y-107753793D01*
X159439661Y-107791598D01*
X159404597Y-107824966D01*
X159394347Y-107834720D01*
X159389735Y-107838897D01*
X159312257Y-107905644D01*
X159301241Y-107915134D01*
X159296437Y-107919071D01*
X159256622Y-107950087D01*
X159204619Y-107990598D01*
X159199640Y-107994283D01*
X159104729Y-108060993D01*
X159104723Y-108060997D01*
X159099591Y-108064420D01*
X159029440Y-108108757D01*
X159001725Y-108126273D01*
X158996455Y-108129426D01*
X158918114Y-108173732D01*
X158895838Y-108186330D01*
X158890410Y-108189227D01*
X158787260Y-108241088D01*
X158781705Y-108243713D01*
X158676205Y-108290459D01*
X158670527Y-108292811D01*
X158562878Y-108334355D01*
X158557093Y-108336427D01*
X158447486Y-108372693D01*
X158441599Y-108374483D01*
X158429394Y-108377870D01*
X158330230Y-108405388D01*
X158324268Y-108406886D01*
X158211319Y-108432354D01*
X158205279Y-108433562D01*
X158177535Y-108438403D01*
X158090961Y-108453509D01*
X158084835Y-108454423D01*
X157969370Y-108468766D01*
X157963187Y-108469380D01*
X157943624Y-108470836D01*
X157846652Y-108478050D01*
X157840466Y-108478356D01*
X157717815Y-108481396D01*
X157715283Y-108481459D01*
X157712161Y-108481498D01*
X127006875Y-108481498D01*
X126938754Y-108461496D01*
X126892261Y-108407840D01*
X126882157Y-108337566D01*
X126890466Y-108307280D01*
X126960310Y-108138662D01*
X126960311Y-108138660D01*
X126962204Y-108134089D01*
X126996198Y-107992495D01*
X127021991Y-107885062D01*
X127021992Y-107885056D01*
X127023146Y-107880249D01*
X127043628Y-107620000D01*
X127025584Y-107390729D01*
X127040180Y-107321249D01*
X127090023Y-107270689D01*
X127159287Y-107255103D01*
X127225983Y-107279438D01*
X127237929Y-107289446D01*
X127433077Y-107474634D01*
X127446878Y-107487731D01*
X127683113Y-107657483D01*
X127708924Y-107671149D01*
X127875872Y-107759543D01*
X127940200Y-107793603D01*
X127944223Y-107795075D01*
X127944227Y-107795077D01*
X128190122Y-107885062D01*
X128213382Y-107893574D01*
X128497604Y-107955544D01*
X128526650Y-107957830D01*
X128723297Y-107973307D01*
X128723304Y-107973307D01*
X128725753Y-107973500D01*
X128883121Y-107973500D01*
X128885257Y-107973354D01*
X128885268Y-107973354D01*
X129095949Y-107958991D01*
X129095955Y-107958990D01*
X129100226Y-107958699D01*
X129104421Y-107957830D01*
X129104423Y-107957830D01*
X129291570Y-107919074D01*
X129385081Y-107899709D01*
X129659295Y-107802605D01*
X129917793Y-107669184D01*
X129921294Y-107666723D01*
X129921298Y-107666721D01*
X130060528Y-107568868D01*
X130155792Y-107501915D01*
X130261711Y-107403489D01*
X130365745Y-107306815D01*
X130365748Y-107306812D01*
X130368888Y-107303894D01*
X130373279Y-107298530D01*
X130550423Y-107082102D01*
X130553139Y-107078784D01*
X130705133Y-106830752D01*
X130713869Y-106810852D01*
X130782618Y-106654235D01*
X130822059Y-106564386D01*
X130827818Y-106544171D01*
X130879213Y-106363746D01*
X130901754Y-106284616D01*
X130902538Y-106279113D01*
X130942137Y-106000870D01*
X130942742Y-105996619D01*
X130943936Y-105768536D01*
X130944243Y-105710009D01*
X130944243Y-105710003D01*
X130944265Y-105705723D01*
X130943170Y-105697401D01*
X130925743Y-105565035D01*
X130906295Y-105417313D01*
X130903584Y-105407401D01*
X130853476Y-105224237D01*
X130829535Y-105136724D01*
X130805219Y-105079717D01*
X130717090Y-104873100D01*
X130717088Y-104873096D01*
X130715404Y-104869148D01*
X130566015Y-104619538D01*
X130464862Y-104493278D01*
X130437882Y-104427610D01*
X130450687Y-104357778D01*
X130499214Y-104305955D01*
X130563198Y-104288500D01*
X130663629Y-104288500D01*
X130731750Y-104308502D01*
X130752724Y-104325405D01*
X131636230Y-105208911D01*
X131648616Y-105223323D01*
X131657149Y-105234918D01*
X131657154Y-105234923D01*
X131661492Y-105240818D01*
X131667070Y-105245557D01*
X131667073Y-105245560D01*
X131701768Y-105275035D01*
X131709284Y-105281965D01*
X131714979Y-105287660D01*
X131717861Y-105289940D01*
X131737251Y-105305281D01*
X131740655Y-105308072D01*
X131779442Y-105341024D01*
X131796285Y-105355333D01*
X131802801Y-105358661D01*
X131807850Y-105362028D01*
X131812979Y-105365195D01*
X131818716Y-105369734D01*
X131884875Y-105400655D01*
X131888769Y-105402558D01*
X131953808Y-105435769D01*
X131960916Y-105437508D01*
X131966559Y-105439607D01*
X131972322Y-105441524D01*
X131978950Y-105444622D01*
X132049148Y-105459223D01*
X132050412Y-105459486D01*
X132054696Y-105460456D01*
X132125610Y-105477808D01*
X132131212Y-105478156D01*
X132131215Y-105478156D01*
X132136764Y-105478500D01*
X132136762Y-105478536D01*
X132140755Y-105478775D01*
X132144947Y-105479149D01*
X132152115Y-105480640D01*
X132229520Y-105478546D01*
X132232928Y-105478500D01*
X144684770Y-105478500D01*
X144703720Y-105479933D01*
X144717955Y-105482099D01*
X144717959Y-105482099D01*
X144725189Y-105483199D01*
X144732481Y-105482606D01*
X144732484Y-105482606D01*
X144777858Y-105478915D01*
X144788073Y-105478500D01*
X144796133Y-105478500D01*
X144813520Y-105476473D01*
X144824347Y-105475211D01*
X144828722Y-105474778D01*
X144894179Y-105469454D01*
X144894182Y-105469453D01*
X144901477Y-105468860D01*
X144908441Y-105466604D01*
X144914400Y-105465413D01*
X144920255Y-105464029D01*
X144927521Y-105463182D01*
X144996167Y-105438265D01*
X145000295Y-105436848D01*
X145062774Y-105416608D01*
X145062779Y-105416606D01*
X145067566Y-105415055D01*
X145069740Y-105414351D01*
X145069968Y-105415055D01*
X145134671Y-105405691D01*
X145168707Y-105415588D01*
X145258734Y-105456237D01*
X145258738Y-105456239D01*
X145262646Y-105458003D01*
X145301304Y-105469454D01*
X145535207Y-105538740D01*
X145535212Y-105538741D01*
X145539320Y-105539958D01*
X145543554Y-105540606D01*
X145543559Y-105540607D01*
X145820315Y-105582956D01*
X145820317Y-105582956D01*
X145824557Y-105583605D01*
X145971409Y-105585912D01*
X146108787Y-105588071D01*
X146108793Y-105588071D01*
X146113078Y-105588138D01*
X146399545Y-105553472D01*
X146669669Y-105482606D01*
X146674514Y-105481335D01*
X146674515Y-105481335D01*
X146678657Y-105480248D01*
X146945249Y-105369822D01*
X146959623Y-105361423D01*
X147190690Y-105226398D01*
X147190691Y-105226398D01*
X147194388Y-105224237D01*
X147246772Y-105183163D01*
X147418091Y-105048831D01*
X147421463Y-105046187D01*
X147622274Y-104838967D01*
X147624807Y-104835519D01*
X147624811Y-104835514D01*
X147790565Y-104609866D01*
X147793103Y-104606411D01*
X147823953Y-104549592D01*
X147928741Y-104356598D01*
X147928742Y-104356596D01*
X147930791Y-104352822D01*
X148032788Y-104082893D01*
X148078813Y-103881939D01*
X148096252Y-103805799D01*
X148096253Y-103805794D01*
X148097209Y-103801619D01*
X148122860Y-103514204D01*
X148123325Y-103469780D01*
X148123156Y-103467299D01*
X148103991Y-103186168D01*
X148103990Y-103186162D01*
X148103699Y-103181891D01*
X148045183Y-102899330D01*
X147948861Y-102627324D01*
X147816514Y-102370907D01*
X147812368Y-102365007D01*
X147653056Y-102138330D01*
X147650593Y-102134825D01*
X147454166Y-101923444D01*
X147230869Y-101740678D01*
X147168263Y-101702313D01*
X147120632Y-101649665D01*
X147109025Y-101579624D01*
X147137128Y-101514426D01*
X147196018Y-101474772D01*
X147234098Y-101468880D01*
X149717569Y-101468880D01*
X149785690Y-101488882D01*
X149806664Y-101505785D01*
X151751023Y-103450144D01*
X151785049Y-103512456D01*
X151787718Y-103531980D01*
X151799462Y-103735645D01*
X151800287Y-103739850D01*
X151800288Y-103739858D01*
X151828163Y-103881939D01*
X151855015Y-104018804D01*
X151856402Y-104022854D01*
X151856403Y-104022859D01*
X151934685Y-104251500D01*
X151948484Y-104291803D01*
X152078138Y-104549592D01*
X152241578Y-104787399D01*
X152435781Y-105000825D01*
X152657152Y-105185919D01*
X152660793Y-105188203D01*
X152897955Y-105336975D01*
X152897959Y-105336977D01*
X152901595Y-105339258D01*
X152905505Y-105341023D01*
X152905506Y-105341024D01*
X153160674Y-105456237D01*
X153160678Y-105456239D01*
X153164586Y-105458003D01*
X153203244Y-105469454D01*
X153437147Y-105538740D01*
X153437152Y-105538741D01*
X153441260Y-105539958D01*
X153445494Y-105540606D01*
X153445499Y-105540607D01*
X153722255Y-105582956D01*
X153722257Y-105582956D01*
X153726497Y-105583605D01*
X153873349Y-105585912D01*
X154010727Y-105588071D01*
X154010733Y-105588071D01*
X154015018Y-105588138D01*
X154301485Y-105553472D01*
X154571609Y-105482606D01*
X154576454Y-105481335D01*
X154576455Y-105481335D01*
X154580597Y-105480248D01*
X154847189Y-105369822D01*
X154861563Y-105361423D01*
X155092630Y-105226398D01*
X155092631Y-105226398D01*
X155096328Y-105224237D01*
X155148712Y-105183163D01*
X155320031Y-105048831D01*
X155323403Y-105046187D01*
X155524214Y-104838967D01*
X155526747Y-104835519D01*
X155526751Y-104835514D01*
X155692505Y-104609866D01*
X155695043Y-104606411D01*
X155725893Y-104549592D01*
X155830681Y-104356598D01*
X155830682Y-104356596D01*
X155832731Y-104352822D01*
X155934728Y-104082893D01*
X155980753Y-103881939D01*
X155998192Y-103805799D01*
X155998193Y-103805794D01*
X155999149Y-103801619D01*
X156024800Y-103514204D01*
X156025265Y-103469780D01*
X156025096Y-103467299D01*
X156005931Y-103186168D01*
X156005930Y-103186162D01*
X156005639Y-103181891D01*
X155947123Y-102899330D01*
X155850801Y-102627324D01*
X155718454Y-102370907D01*
X155714308Y-102365007D01*
X155554996Y-102138330D01*
X155552533Y-102134825D01*
X155356106Y-101923444D01*
X155132809Y-101740678D01*
X154984290Y-101649665D01*
X154890424Y-101592143D01*
X154890416Y-101592139D01*
X154886774Y-101589907D01*
X154882857Y-101588188D01*
X154882854Y-101588186D01*
X154695135Y-101505784D01*
X154622553Y-101473923D01*
X154618425Y-101472747D01*
X154618422Y-101472746D01*
X154532573Y-101448291D01*
X154345036Y-101394870D01*
X154340794Y-101394266D01*
X154340788Y-101394265D01*
X154063609Y-101354817D01*
X154059358Y-101354212D01*
X153994170Y-101353871D01*
X153972852Y-101353759D01*
X153904837Y-101333401D01*
X153884417Y-101316856D01*
X151478275Y-98910714D01*
X151475821Y-98908192D01*
X151410738Y-98839368D01*
X151410735Y-98839366D01*
X151407268Y-98835699D01*
X151344839Y-98787969D01*
X151339708Y-98783828D01*
X151283733Y-98736189D01*
X151283732Y-98736188D01*
X151279880Y-98732910D01*
X151275555Y-98730291D01*
X151275550Y-98730287D01*
X151251776Y-98715889D01*
X151240529Y-98708217D01*
X151214426Y-98688260D01*
X151145192Y-98651137D01*
X151139468Y-98647873D01*
X151138382Y-98647215D01*
X151072242Y-98607159D01*
X151041781Y-98594852D01*
X151029441Y-98589072D01*
X151025950Y-98587200D01*
X151000491Y-98573549D01*
X150995710Y-98571903D01*
X150995706Y-98571901D01*
X150926199Y-98547968D01*
X150920021Y-98545658D01*
X150851866Y-98518122D01*
X150851867Y-98518122D01*
X150847171Y-98516225D01*
X150815139Y-98508948D01*
X150802041Y-98505217D01*
X150770969Y-98494518D01*
X150693500Y-98481137D01*
X150687096Y-98479857D01*
X150610456Y-98462445D01*
X150577647Y-98460381D01*
X150564147Y-98458795D01*
X150531764Y-98453201D01*
X150527807Y-98453021D01*
X150527804Y-98453021D01*
X150504094Y-98451944D01*
X150504075Y-98451944D01*
X150502675Y-98451880D01*
X150446492Y-98451880D01*
X150438580Y-98451631D01*
X150432986Y-98451279D01*
X150368187Y-98447202D01*
X150329145Y-98451030D01*
X150326608Y-98451279D01*
X150314312Y-98451880D01*
X129593622Y-98451880D01*
X129590103Y-98451831D01*
X129495470Y-98449187D01*
X129495467Y-98449187D01*
X129490415Y-98449046D01*
X129412522Y-98459439D01*
X129405981Y-98460138D01*
X129381237Y-98462129D01*
X129332697Y-98466034D01*
X129332693Y-98466035D01*
X129327655Y-98466440D01*
X129295742Y-98474279D01*
X129282362Y-98476806D01*
X129249800Y-98481151D01*
X129244959Y-98482612D01*
X129244957Y-98482613D01*
X129174591Y-98503858D01*
X129168230Y-98505599D01*
X129091914Y-98524343D01*
X129087254Y-98526321D01*
X129061669Y-98537181D01*
X129048859Y-98541818D01*
X129017412Y-98551313D01*
X129012864Y-98553531D01*
X129012857Y-98553534D01*
X128946802Y-98585751D01*
X128940800Y-98588487D01*
X128896812Y-98607159D01*
X128868464Y-98619192D01*
X128844152Y-98634503D01*
X128840664Y-98636699D01*
X128828760Y-98643325D01*
X128799232Y-98657726D01*
X128795095Y-98660645D01*
X128795094Y-98660645D01*
X128735023Y-98703021D01*
X128729534Y-98706681D01*
X128692049Y-98730287D01*
X128663053Y-98748547D01*
X128659264Y-98751888D01*
X128659258Y-98751892D01*
X128638403Y-98770278D01*
X128627708Y-98778724D01*
X128600873Y-98797654D01*
X128579370Y-98817289D01*
X128539654Y-98857005D01*
X128533884Y-98862424D01*
X128484762Y-98905730D01*
X128484759Y-98905733D01*
X128480965Y-98909078D01*
X128477755Y-98912986D01*
X128477754Y-98912987D01*
X128454441Y-98941369D01*
X128446171Y-98950488D01*
X127690829Y-99705830D01*
X127628517Y-99739856D01*
X127557702Y-99734791D01*
X127500866Y-99692244D01*
X127480027Y-99649345D01*
X127458073Y-99567407D01*
X127454326Y-99557113D01*
X127365946Y-99367583D01*
X127360466Y-99358093D01*
X127331589Y-99316851D01*
X127321114Y-99308477D01*
X127307667Y-99315545D01*
X126359095Y-100264116D01*
X126296783Y-100298141D01*
X126225967Y-100293076D01*
X126180905Y-100264115D01*
X125999885Y-100083095D01*
X125965859Y-100020783D01*
X125970924Y-99949968D01*
X125999885Y-99904905D01*
X126786786Y-99118004D01*
X126822631Y-99092905D01*
X126901654Y-99056056D01*
X126906152Y-99052907D01*
X126906158Y-99052903D01*
X127077527Y-98932908D01*
X127077529Y-98932906D01*
X127082038Y-98929749D01*
X127237749Y-98774038D01*
X127255332Y-98748928D01*
X127360899Y-98598162D01*
X127360900Y-98598160D01*
X127364056Y-98593653D01*
X127366379Y-98588671D01*
X127366382Y-98588666D01*
X127423376Y-98466440D01*
X127457120Y-98394076D01*
X127514115Y-98181371D01*
X127533307Y-97962000D01*
X127514115Y-97742629D01*
X127457120Y-97529924D01*
X127413585Y-97436562D01*
X127366382Y-97335334D01*
X127366379Y-97335329D01*
X127364056Y-97330347D01*
X127308516Y-97251028D01*
X127285829Y-97183756D01*
X127303114Y-97114896D01*
X127336165Y-97077933D01*
X127375724Y-97048285D01*
X127388285Y-97035724D01*
X127464786Y-96933649D01*
X127473324Y-96918054D01*
X127518478Y-96797606D01*
X127522105Y-96782351D01*
X127527119Y-96736198D01*
X136804274Y-96736198D01*
X136811329Y-96746171D01*
X136855351Y-96782979D01*
X136862285Y-96788016D01*
X137099391Y-96936754D01*
X137106942Y-96940803D01*
X137362049Y-97055987D01*
X137370080Y-97058974D01*
X137638457Y-97138471D01*
X137646809Y-97140338D01*
X137923498Y-97182677D01*
X137932031Y-97183393D01*
X138211901Y-97187791D01*
X138220452Y-97187343D01*
X138498327Y-97153715D01*
X138506744Y-97152110D01*
X138777486Y-97081082D01*
X138785602Y-97078351D01*
X139044206Y-96971233D01*
X139051868Y-96967430D01*
X139293541Y-96826208D01*
X139300624Y-96821394D01*
X139396653Y-96746097D01*
X139403724Y-96736198D01*
X140751434Y-96736198D01*
X140758489Y-96746171D01*
X140802511Y-96782979D01*
X140809445Y-96788016D01*
X141046551Y-96936754D01*
X141054102Y-96940803D01*
X141309209Y-97055987D01*
X141317240Y-97058974D01*
X141585617Y-97138471D01*
X141593969Y-97140338D01*
X141870658Y-97182677D01*
X141879191Y-97183393D01*
X142159061Y-97187791D01*
X142167612Y-97187343D01*
X142445487Y-97153715D01*
X142453904Y-97152110D01*
X142724646Y-97081082D01*
X142732762Y-97078351D01*
X142991366Y-96971233D01*
X142999028Y-96967430D01*
X143240701Y-96826208D01*
X143247784Y-96821394D01*
X143343813Y-96746097D01*
X143352283Y-96734239D01*
X143345766Y-96722616D01*
X142065172Y-95442022D01*
X142051228Y-95434408D01*
X142049395Y-95434539D01*
X142042780Y-95438790D01*
X140758726Y-96722844D01*
X140751434Y-96736198D01*
X139403724Y-96736198D01*
X139405123Y-96734239D01*
X139398606Y-96722616D01*
X138118012Y-95442022D01*
X138104068Y-95434408D01*
X138102235Y-95434539D01*
X138095620Y-95438790D01*
X136811566Y-96722844D01*
X136804274Y-96736198D01*
X127527119Y-96736198D01*
X127527631Y-96731486D01*
X127528000Y-96724672D01*
X127528000Y-96202115D01*
X127523525Y-96186876D01*
X127522135Y-96185671D01*
X127514452Y-96184000D01*
X126142000Y-96184000D01*
X126073879Y-96163998D01*
X126027386Y-96110342D01*
X126016000Y-96058000D01*
X126016000Y-94690116D01*
X126011525Y-94674877D01*
X126010135Y-94673672D01*
X126002452Y-94672001D01*
X125475331Y-94672001D01*
X125468510Y-94672371D01*
X125417648Y-94677895D01*
X125402396Y-94681521D01*
X125281946Y-94726676D01*
X125266351Y-94735214D01*
X125164276Y-94811715D01*
X125151715Y-94824276D01*
X125075214Y-94926351D01*
X125066676Y-94941946D01*
X125021522Y-95062394D01*
X125017895Y-95077649D01*
X125012369Y-95128514D01*
X125012000Y-95135328D01*
X125012000Y-95618768D01*
X124991998Y-95686889D01*
X124938342Y-95733382D01*
X124868068Y-95743486D01*
X124853388Y-95740474D01*
X124714692Y-95703310D01*
X124714683Y-95703309D01*
X124709371Y-95701885D01*
X124490000Y-95682693D01*
X124270629Y-95701885D01*
X124057924Y-95758880D01*
X123964562Y-95802415D01*
X123863334Y-95849618D01*
X123863329Y-95849621D01*
X123858347Y-95851944D01*
X123853840Y-95855100D01*
X123853838Y-95855101D01*
X123682473Y-95975092D01*
X123682470Y-95975094D01*
X123677962Y-95978251D01*
X123522251Y-96133962D01*
X123519094Y-96138470D01*
X123519092Y-96138473D01*
X123468948Y-96210086D01*
X123395944Y-96314347D01*
X123393621Y-96319329D01*
X123393618Y-96319334D01*
X123363425Y-96384084D01*
X123302880Y-96513924D01*
X123245885Y-96726629D01*
X123226693Y-96946000D01*
X123227172Y-96951475D01*
X123227172Y-96951476D01*
X123236908Y-97062761D01*
X123222919Y-97132365D01*
X123200482Y-97162837D01*
X122211089Y-98152230D01*
X122196677Y-98164616D01*
X122185082Y-98173149D01*
X122185077Y-98173154D01*
X122179182Y-98177492D01*
X122174443Y-98183070D01*
X122174440Y-98183073D01*
X122144965Y-98217768D01*
X122138035Y-98225284D01*
X122132340Y-98230979D01*
X122130060Y-98233861D01*
X122114719Y-98253251D01*
X122111928Y-98256655D01*
X122069409Y-98306703D01*
X122064667Y-98312285D01*
X122061339Y-98318801D01*
X122057972Y-98323850D01*
X122054805Y-98328979D01*
X122050266Y-98334716D01*
X122019345Y-98400875D01*
X122017442Y-98404769D01*
X121984231Y-98469808D01*
X121982492Y-98476916D01*
X121980393Y-98482559D01*
X121978476Y-98488322D01*
X121975378Y-98494950D01*
X121973888Y-98502112D01*
X121973888Y-98502113D01*
X121960514Y-98566412D01*
X121959544Y-98570696D01*
X121942192Y-98641610D01*
X121941500Y-98652764D01*
X121941464Y-98652762D01*
X121941225Y-98656755D01*
X121940851Y-98660947D01*
X121939360Y-98668115D01*
X121939558Y-98675432D01*
X121941454Y-98745521D01*
X121941500Y-98748928D01*
X121941500Y-103812930D01*
X121940067Y-103831880D01*
X121936801Y-103853349D01*
X121937394Y-103860641D01*
X121937394Y-103860644D01*
X121941085Y-103906018D01*
X121941500Y-103916233D01*
X121941500Y-103924293D01*
X121941925Y-103927937D01*
X121944789Y-103952507D01*
X121945222Y-103956882D01*
X121950259Y-104018804D01*
X121951140Y-104029637D01*
X121953396Y-104036601D01*
X121954587Y-104042560D01*
X121955971Y-104048415D01*
X121956818Y-104055681D01*
X121981735Y-104124327D01*
X121983152Y-104128455D01*
X122005649Y-104197899D01*
X122009445Y-104204154D01*
X122011951Y-104209628D01*
X122014670Y-104215058D01*
X122017167Y-104221937D01*
X122021180Y-104228057D01*
X122021180Y-104228058D01*
X122057186Y-104282976D01*
X122059523Y-104286680D01*
X122097405Y-104349107D01*
X122101121Y-104353315D01*
X122101122Y-104353316D01*
X122104803Y-104357484D01*
X122104776Y-104357508D01*
X122107429Y-104360500D01*
X122110132Y-104363733D01*
X122114144Y-104369852D01*
X122119456Y-104374884D01*
X122170383Y-104423128D01*
X122172825Y-104425506D01*
X123246230Y-105498911D01*
X123258616Y-105513323D01*
X123267149Y-105524918D01*
X123267154Y-105524923D01*
X123271492Y-105530818D01*
X123277070Y-105535557D01*
X123277073Y-105535560D01*
X123311768Y-105565035D01*
X123319284Y-105571965D01*
X123324979Y-105577660D01*
X123327861Y-105579940D01*
X123347251Y-105595281D01*
X123350655Y-105598072D01*
X123400703Y-105640591D01*
X123406285Y-105645333D01*
X123412801Y-105648661D01*
X123417850Y-105652028D01*
X123422979Y-105655195D01*
X123428716Y-105659734D01*
X123494875Y-105690655D01*
X123498769Y-105692558D01*
X123563808Y-105725769D01*
X123570916Y-105727508D01*
X123576559Y-105729607D01*
X123582322Y-105731524D01*
X123588950Y-105734622D01*
X123596112Y-105736112D01*
X123596113Y-105736112D01*
X123660412Y-105749486D01*
X123664696Y-105750456D01*
X123735610Y-105767808D01*
X123741212Y-105768156D01*
X123741215Y-105768156D01*
X123746764Y-105768500D01*
X123746762Y-105768536D01*
X123750755Y-105768775D01*
X123754947Y-105769149D01*
X123762115Y-105770640D01*
X123839520Y-105768546D01*
X123842928Y-105768500D01*
X124923039Y-105768500D01*
X124991160Y-105788502D01*
X125037653Y-105842158D01*
X125047757Y-105912432D01*
X125018263Y-105977012D01*
X124952453Y-106017019D01*
X124865911Y-106037796D01*
X124861340Y-106039689D01*
X124861338Y-106039690D01*
X124629303Y-106135802D01*
X124629299Y-106135804D01*
X124624729Y-106137697D01*
X124402144Y-106274097D01*
X124203637Y-106443637D01*
X124034097Y-106642144D01*
X123897697Y-106864729D01*
X123895804Y-106869299D01*
X123895802Y-106869303D01*
X123810546Y-107075130D01*
X123797796Y-107105911D01*
X123784055Y-107163148D01*
X123738009Y-107354938D01*
X123738008Y-107354944D01*
X123736854Y-107359751D01*
X123716372Y-107620000D01*
X123736854Y-107880249D01*
X123738008Y-107885056D01*
X123738009Y-107885062D01*
X123763802Y-107992495D01*
X123797796Y-108134089D01*
X123799689Y-108138660D01*
X123799690Y-108138662D01*
X123869534Y-108307280D01*
X123877123Y-108377870D01*
X123845344Y-108441357D01*
X123784286Y-108477584D01*
X123753125Y-108481498D01*
X120527840Y-108481498D01*
X120524719Y-108481459D01*
X120520535Y-108481355D01*
X120399528Y-108478356D01*
X120393335Y-108478050D01*
X120276812Y-108469380D01*
X120270631Y-108468766D01*
X120209561Y-108461180D01*
X120155138Y-108454420D01*
X120149034Y-108453509D01*
X120034740Y-108433565D01*
X120028684Y-108432355D01*
X119919960Y-108407840D01*
X119915726Y-108406885D01*
X119909752Y-108405384D01*
X119798380Y-108374478D01*
X119792537Y-108372702D01*
X119682921Y-108336433D01*
X119677136Y-108334361D01*
X119569460Y-108292807D01*
X119563783Y-108290455D01*
X119458297Y-108243716D01*
X119452741Y-108241091D01*
X119398203Y-108213671D01*
X119349579Y-108189224D01*
X119344175Y-108186339D01*
X119243563Y-108129438D01*
X119238286Y-108126281D01*
X119238274Y-108126273D01*
X119140402Y-108064417D01*
X119135268Y-108060993D01*
X119131736Y-108058510D01*
X119040354Y-107994282D01*
X119035375Y-107990596D01*
X119007742Y-107969069D01*
X118943559Y-107919069D01*
X118938762Y-107915137D01*
X118921862Y-107900578D01*
X118850272Y-107838904D01*
X118845658Y-107834726D01*
X118760617Y-107753798D01*
X118756202Y-107749383D01*
X118746428Y-107739112D01*
X118675276Y-107664342D01*
X118671101Y-107659731D01*
X118594847Y-107571218D01*
X118590909Y-107566412D01*
X118519412Y-107474634D01*
X118515726Y-107469656D01*
X118448999Y-107374721D01*
X118445572Y-107369582D01*
X118405903Y-107306815D01*
X118383720Y-107271716D01*
X118380571Y-107266454D01*
X118323654Y-107165813D01*
X118320763Y-107160395D01*
X118277893Y-107075130D01*
X118268913Y-107057269D01*
X118266289Y-107051718D01*
X118264694Y-107048117D01*
X118219533Y-106946193D01*
X118217183Y-106940518D01*
X118175643Y-106832879D01*
X118173571Y-106827095D01*
X118171899Y-106822041D01*
X118137300Y-106717473D01*
X118135519Y-106711614D01*
X118126108Y-106677698D01*
X118104609Y-106600227D01*
X118103108Y-106594253D01*
X118077644Y-106481319D01*
X118076435Y-106475275D01*
X118071571Y-106447399D01*
X118056485Y-106360942D01*
X118055574Y-106354832D01*
X118053330Y-106336759D01*
X118041233Y-106239371D01*
X118040619Y-106233192D01*
X118033691Y-106140077D01*
X118031948Y-106116654D01*
X118031641Y-106110444D01*
X118029888Y-106039690D01*
X118028539Y-105985279D01*
X118028500Y-105982157D01*
X118028500Y-92997841D01*
X118028539Y-92994719D01*
X118031642Y-92869538D01*
X118031950Y-92863311D01*
X118032742Y-92852676D01*
X118040618Y-92746816D01*
X118041231Y-92740642D01*
X118045945Y-92702687D01*
X118055576Y-92625150D01*
X118056488Y-92619034D01*
X118056974Y-92616253D01*
X118076440Y-92504692D01*
X118077645Y-92498667D01*
X118103104Y-92385758D01*
X118104606Y-92379781D01*
X118135520Y-92268384D01*
X118137309Y-92262499D01*
X118173584Y-92152863D01*
X118175633Y-92147141D01*
X118217188Y-92039465D01*
X118219537Y-92033795D01*
X118247999Y-91969558D01*
X118266283Y-91928292D01*
X118268907Y-91922741D01*
X118320772Y-91819585D01*
X118323669Y-91814157D01*
X118340678Y-91784083D01*
X118380563Y-91713558D01*
X118383723Y-91708276D01*
X118391565Y-91695869D01*
X118445576Y-91610409D01*
X118449000Y-91605275D01*
X118515716Y-91510355D01*
X118519401Y-91505376D01*
X118590933Y-91413554D01*
X118594846Y-91408778D01*
X118671118Y-91320244D01*
X118675295Y-91315632D01*
X118677535Y-91313279D01*
X118756195Y-91230621D01*
X118760609Y-91226207D01*
X118845657Y-91145272D01*
X118850268Y-91141097D01*
X118938767Y-91064855D01*
X118943563Y-91060925D01*
X119035374Y-90989404D01*
X119040350Y-90985720D01*
X119135279Y-90918996D01*
X119140419Y-90915568D01*
X119196118Y-90880366D01*
X119238282Y-90853718D01*
X119243561Y-90850560D01*
X119251782Y-90845911D01*
X119344157Y-90793668D01*
X119349578Y-90790774D01*
X119452761Y-90738896D01*
X119458318Y-90736271D01*
X119563784Y-90689541D01*
X119569461Y-90687189D01*
X119677139Y-90645634D01*
X119682925Y-90643562D01*
X119708645Y-90635052D01*
X119792516Y-90607302D01*
X119798388Y-90605517D01*
X119810601Y-90602128D01*
X119909767Y-90574609D01*
X119915737Y-90573109D01*
X120028675Y-90547643D01*
X120034733Y-90546432D01*
X120149034Y-90526489D01*
X120155159Y-90525575D01*
X120270628Y-90511232D01*
X120276811Y-90510618D01*
X120298598Y-90508997D01*
X120393346Y-90501948D01*
X120399532Y-90501642D01*
X120524717Y-90498539D01*
X120527840Y-90498500D01*
X123753126Y-90498500D01*
X123821247Y-90518502D01*
X123867740Y-90572158D01*
X123877844Y-90642432D01*
X123869535Y-90672718D01*
X123820065Y-90792150D01*
X123797796Y-90845911D01*
X123791715Y-90871240D01*
X123738009Y-91094938D01*
X123738008Y-91094944D01*
X123736854Y-91099751D01*
X123716372Y-91360000D01*
X123736854Y-91620249D01*
X123738008Y-91625056D01*
X123738009Y-91625062D01*
X123758612Y-91710876D01*
X123797796Y-91874089D01*
X123799689Y-91878660D01*
X123799690Y-91878662D01*
X123891151Y-92099467D01*
X123897697Y-92115271D01*
X124034097Y-92337856D01*
X124203637Y-92536363D01*
X124402144Y-92705903D01*
X124624729Y-92842303D01*
X124629299Y-92844196D01*
X124629303Y-92844198D01*
X124861338Y-92940310D01*
X124865911Y-92942204D01*
X124954931Y-92963576D01*
X125114938Y-93001991D01*
X125114944Y-93001992D01*
X125119751Y-93003146D01*
X125380000Y-93023628D01*
X125640249Y-93003146D01*
X125645056Y-93001992D01*
X125645062Y-93001991D01*
X125805069Y-92963576D01*
X125894089Y-92942204D01*
X125898662Y-92940310D01*
X126130697Y-92844198D01*
X126130701Y-92844196D01*
X126135271Y-92842303D01*
X126357856Y-92705903D01*
X126513566Y-92572915D01*
X126578356Y-92543884D01*
X126648556Y-92554489D01*
X126701878Y-92601364D01*
X126721393Y-92669626D01*
X126718805Y-92693423D01*
X126718246Y-92695384D01*
X126717643Y-92699619D01*
X126717642Y-92699625D01*
X126681513Y-92953486D01*
X126677258Y-92983381D01*
X126676455Y-93136768D01*
X126676162Y-93192808D01*
X126675735Y-93274277D01*
X126713705Y-93562687D01*
X126790465Y-93843276D01*
X126792149Y-93847224D01*
X126885879Y-94066970D01*
X126904596Y-94110852D01*
X127053985Y-94360462D01*
X127056669Y-94363813D01*
X127056671Y-94363815D01*
X127139514Y-94467220D01*
X127166496Y-94532889D01*
X127153691Y-94602722D01*
X127105164Y-94654545D01*
X127041180Y-94672000D01*
X126542115Y-94672000D01*
X126526876Y-94676475D01*
X126525671Y-94677865D01*
X126524000Y-94685548D01*
X126524000Y-95657885D01*
X126528475Y-95673124D01*
X126529865Y-95674329D01*
X126537548Y-95676000D01*
X127509884Y-95676000D01*
X127525123Y-95671525D01*
X127526328Y-95670135D01*
X127527999Y-95662452D01*
X127527999Y-95135331D01*
X127527630Y-95128512D01*
X127524074Y-95095778D01*
X127536603Y-95025896D01*
X127584924Y-94973881D01*
X127653696Y-94956247D01*
X127708296Y-94970817D01*
X127897759Y-95071132D01*
X127940200Y-95093603D01*
X127944223Y-95095075D01*
X127944227Y-95095077D01*
X128035598Y-95128514D01*
X128213382Y-95193574D01*
X128497604Y-95255544D01*
X128526650Y-95257830D01*
X128723297Y-95273307D01*
X128723304Y-95273307D01*
X128725753Y-95273500D01*
X128883121Y-95273500D01*
X128885257Y-95273354D01*
X128885268Y-95273354D01*
X129095949Y-95258991D01*
X129095955Y-95258990D01*
X129100226Y-95258699D01*
X129104421Y-95257830D01*
X129104423Y-95257830D01*
X129242654Y-95229204D01*
X129385081Y-95199709D01*
X129659295Y-95102605D01*
X129757201Y-95052072D01*
X135984799Y-95052072D01*
X136000912Y-95331514D01*
X136001985Y-95340015D01*
X136055874Y-95614687D01*
X136058087Y-95622949D01*
X136148757Y-95887773D01*
X136152073Y-95895660D01*
X136277842Y-96145726D01*
X136282199Y-96153092D01*
X136427008Y-96363790D01*
X136437261Y-96372134D01*
X136451002Y-96364988D01*
X137733178Y-95082812D01*
X137739556Y-95071132D01*
X138469608Y-95071132D01*
X138469739Y-95072965D01*
X138473990Y-95079580D01*
X139758058Y-96363648D01*
X139770268Y-96370315D01*
X139781767Y-96361626D01*
X139893282Y-96209817D01*
X139897866Y-96202594D01*
X139967536Y-96074278D01*
X140017619Y-96023956D01*
X140086957Y-96008700D01*
X140153536Y-96033352D01*
X140190832Y-96077786D01*
X140225002Y-96145726D01*
X140229359Y-96153092D01*
X140374168Y-96363790D01*
X140384421Y-96372134D01*
X140398162Y-96364988D01*
X141680338Y-95082812D01*
X141686716Y-95071132D01*
X142416768Y-95071132D01*
X142416899Y-95072965D01*
X142421150Y-95079580D01*
X143705218Y-96363648D01*
X143717428Y-96370315D01*
X143728927Y-96361626D01*
X143840442Y-96209817D01*
X143845026Y-96202594D01*
X143915724Y-96072384D01*
X143965807Y-96022063D01*
X144035145Y-96006806D01*
X144101724Y-96031458D01*
X144139020Y-96075892D01*
X144166266Y-96130065D01*
X144176198Y-96149812D01*
X144212145Y-96202115D01*
X144323261Y-96363790D01*
X144339638Y-96387619D01*
X144342525Y-96390792D01*
X144342526Y-96390793D01*
X144530951Y-96597869D01*
X144533841Y-96601045D01*
X144755212Y-96786139D01*
X144758853Y-96788423D01*
X144996015Y-96937195D01*
X144996019Y-96937197D01*
X144999655Y-96939478D01*
X145003565Y-96941243D01*
X145003566Y-96941244D01*
X145258734Y-97056457D01*
X145258738Y-97056459D01*
X145262646Y-97058223D01*
X145330597Y-97078351D01*
X145535207Y-97138960D01*
X145535212Y-97138961D01*
X145539320Y-97140178D01*
X145543554Y-97140826D01*
X145543559Y-97140827D01*
X145820315Y-97183176D01*
X145820317Y-97183176D01*
X145824557Y-97183825D01*
X145971409Y-97186132D01*
X146108787Y-97188291D01*
X146108793Y-97188291D01*
X146113078Y-97188358D01*
X146399545Y-97153692D01*
X146678657Y-97080468D01*
X146945249Y-96970042D01*
X146995762Y-96940525D01*
X147190690Y-96826618D01*
X147190691Y-96826618D01*
X147194388Y-96824457D01*
X147200713Y-96819498D01*
X147418091Y-96649051D01*
X147421463Y-96646407D01*
X147622274Y-96439187D01*
X147624807Y-96435739D01*
X147624811Y-96435734D01*
X147790565Y-96210086D01*
X147793103Y-96206631D01*
X147803829Y-96186876D01*
X147928741Y-95956818D01*
X147928742Y-95956816D01*
X147930791Y-95953042D01*
X148032788Y-95683113D01*
X148097209Y-95401839D01*
X148122860Y-95114424D01*
X148123325Y-95070000D01*
X148123123Y-95067035D01*
X148103991Y-94786388D01*
X148103990Y-94786382D01*
X148103699Y-94782111D01*
X148087826Y-94705461D01*
X148046052Y-94503747D01*
X148045183Y-94499550D01*
X147948861Y-94227544D01*
X147816514Y-93971127D01*
X147806052Y-93956240D01*
X147723750Y-93839137D01*
X147650593Y-93735045D01*
X147506859Y-93580368D01*
X147457087Y-93526807D01*
X147457084Y-93526804D01*
X147454166Y-93523664D01*
X147230869Y-93340898D01*
X147179557Y-93309454D01*
X146988484Y-93192363D01*
X146988476Y-93192359D01*
X146984834Y-93190127D01*
X146980917Y-93188408D01*
X146980914Y-93188406D01*
X146864077Y-93137119D01*
X146720613Y-93074143D01*
X146716485Y-93072967D01*
X146716482Y-93072966D01*
X146630633Y-93048511D01*
X146443096Y-92995090D01*
X146438854Y-92994486D01*
X146438848Y-92994485D01*
X146161669Y-92955037D01*
X146157418Y-92954432D01*
X146005333Y-92953636D01*
X145873151Y-92952943D01*
X145873144Y-92952943D01*
X145868865Y-92952921D01*
X145864621Y-92953480D01*
X145864617Y-92953480D01*
X145738942Y-92970025D01*
X145582776Y-92990585D01*
X145578636Y-92991718D01*
X145578634Y-92991718D01*
X145511774Y-93010009D01*
X145304447Y-93066727D01*
X145283016Y-93075868D01*
X145042978Y-93178253D01*
X145042974Y-93178255D01*
X145039026Y-93179939D01*
X144914009Y-93254760D01*
X144795107Y-93325921D01*
X144795103Y-93325924D01*
X144791425Y-93328125D01*
X144788082Y-93330803D01*
X144788078Y-93330806D01*
X144709610Y-93393671D01*
X144566227Y-93508543D01*
X144563283Y-93511645D01*
X144563279Y-93511649D01*
X144494036Y-93584616D01*
X144367597Y-93717855D01*
X144199212Y-93952187D01*
X144139438Y-94065082D01*
X144138438Y-94066970D01*
X144088885Y-94117813D01*
X144019711Y-94133795D01*
X143952877Y-94109842D01*
X143915117Y-94065801D01*
X143868351Y-93975194D01*
X143863923Y-93967882D01*
X143729785Y-93777023D01*
X143719263Y-93768643D01*
X143705875Y-93775695D01*
X142424382Y-95057188D01*
X142416768Y-95071132D01*
X141686716Y-95071132D01*
X141687952Y-95068868D01*
X141687821Y-95067035D01*
X141683570Y-95060420D01*
X140398917Y-93775767D01*
X140386907Y-93769209D01*
X140375167Y-93778177D01*
X140252444Y-93948964D01*
X140247925Y-93956251D01*
X140190302Y-94065082D01*
X140140750Y-94115925D01*
X140071575Y-94131907D01*
X140004742Y-94107953D01*
X139966982Y-94063913D01*
X139921191Y-93975194D01*
X139916763Y-93967882D01*
X139782625Y-93777023D01*
X139772103Y-93768643D01*
X139758715Y-93775695D01*
X138477222Y-95057188D01*
X138469608Y-95071132D01*
X137739556Y-95071132D01*
X137740792Y-95068868D01*
X137740661Y-95067035D01*
X137736410Y-95060420D01*
X136451757Y-93775767D01*
X136439747Y-93769209D01*
X136428007Y-93778177D01*
X136305284Y-93948964D01*
X136300772Y-93956240D01*
X136169791Y-94203621D01*
X136166312Y-94211435D01*
X136070119Y-94474295D01*
X136067730Y-94482518D01*
X136008100Y-94756006D01*
X136006851Y-94764462D01*
X135984888Y-95043522D01*
X135984799Y-95052072D01*
X129757201Y-95052072D01*
X129917793Y-94969184D01*
X129921294Y-94966723D01*
X129921298Y-94966721D01*
X130036792Y-94885550D01*
X130155792Y-94801915D01*
X130259589Y-94705461D01*
X130365745Y-94606815D01*
X130365748Y-94606812D01*
X130368888Y-94603894D01*
X130382316Y-94587489D01*
X130550423Y-94382102D01*
X130553139Y-94378784D01*
X130705133Y-94130752D01*
X130713869Y-94110852D01*
X130820334Y-93868315D01*
X130822059Y-93864386D01*
X130828073Y-93843276D01*
X130849332Y-93768643D01*
X130901754Y-93584616D01*
X130904286Y-93566829D01*
X130927204Y-93405796D01*
X136805079Y-93405796D01*
X136811475Y-93417065D01*
X138092388Y-94697978D01*
X138106332Y-94705592D01*
X138108165Y-94705461D01*
X138114780Y-94701210D01*
X139398424Y-93417566D01*
X139404851Y-93405796D01*
X140752239Y-93405796D01*
X140758635Y-93417065D01*
X142039548Y-94697978D01*
X142053492Y-94705592D01*
X142055325Y-94705461D01*
X142061940Y-94701210D01*
X143345584Y-93417566D01*
X143352776Y-93404396D01*
X143345454Y-93394161D01*
X143284196Y-93344021D01*
X143277227Y-93339068D01*
X143038552Y-93192808D01*
X143030982Y-93188850D01*
X142774672Y-93076339D01*
X142766612Y-93073437D01*
X142497422Y-92996757D01*
X142489044Y-92994975D01*
X142211932Y-92955536D01*
X142203385Y-92954909D01*
X141923483Y-92953443D01*
X141914948Y-92953980D01*
X141637431Y-92990516D01*
X141629033Y-92992209D01*
X141359056Y-93066067D01*
X141350961Y-93068886D01*
X141093495Y-93178704D01*
X141085873Y-93182588D01*
X140845696Y-93326331D01*
X140838658Y-93331222D01*
X140760709Y-93393671D01*
X140752239Y-93405796D01*
X139404851Y-93405796D01*
X139405616Y-93404396D01*
X139398294Y-93394161D01*
X139337036Y-93344021D01*
X139330067Y-93339068D01*
X139091392Y-93192808D01*
X139083822Y-93188850D01*
X138827512Y-93076339D01*
X138819452Y-93073437D01*
X138550262Y-92996757D01*
X138541884Y-92994975D01*
X138264772Y-92955536D01*
X138256225Y-92954909D01*
X137976323Y-92953443D01*
X137967788Y-92953980D01*
X137690271Y-92990516D01*
X137681873Y-92992209D01*
X137411896Y-93066067D01*
X137403801Y-93068886D01*
X137146335Y-93178704D01*
X137138713Y-93182588D01*
X136898536Y-93326331D01*
X136891498Y-93331222D01*
X136813549Y-93393671D01*
X136805079Y-93405796D01*
X130927204Y-93405796D01*
X130942137Y-93300870D01*
X130942742Y-93296619D01*
X130943545Y-93143232D01*
X130944243Y-93010009D01*
X130944243Y-93010003D01*
X130944265Y-93005723D01*
X130943228Y-92997841D01*
X130922410Y-92839717D01*
X130906295Y-92717313D01*
X130903881Y-92708487D01*
X130846464Y-92498608D01*
X130829535Y-92436724D01*
X130787364Y-92337856D01*
X130717090Y-92173100D01*
X130717088Y-92173096D01*
X130715404Y-92169148D01*
X130566015Y-91919538D01*
X130551337Y-91901216D01*
X130386823Y-91695869D01*
X130384133Y-91692511D01*
X130209818Y-91527092D01*
X130176231Y-91495219D01*
X130176228Y-91495217D01*
X130173122Y-91492269D01*
X129936887Y-91322517D01*
X129754988Y-91226207D01*
X129683587Y-91188402D01*
X129683586Y-91188401D01*
X129679800Y-91186397D01*
X129675777Y-91184925D01*
X129675773Y-91184923D01*
X129410649Y-91087901D01*
X129410647Y-91087900D01*
X129406618Y-91086426D01*
X129122396Y-91024456D01*
X129071420Y-91020444D01*
X128896703Y-91006693D01*
X128896696Y-91006693D01*
X128894247Y-91006500D01*
X128736879Y-91006500D01*
X128734743Y-91006646D01*
X128734732Y-91006646D01*
X128524051Y-91021009D01*
X128524045Y-91021010D01*
X128519774Y-91021301D01*
X128515579Y-91022170D01*
X128515577Y-91022170D01*
X128500130Y-91025369D01*
X128234919Y-91080291D01*
X127960705Y-91177395D01*
X127702207Y-91310816D01*
X127698706Y-91313277D01*
X127698702Y-91313279D01*
X127685558Y-91322517D01*
X127464208Y-91478085D01*
X127432217Y-91507813D01*
X127282107Y-91647304D01*
X127251112Y-91676106D01*
X127248396Y-91679424D01*
X127245457Y-91682554D01*
X127244669Y-91681814D01*
X127190054Y-91719112D01*
X127119085Y-91721098D01*
X127058309Y-91684400D01*
X127027021Y-91620669D01*
X127025576Y-91589370D01*
X127030478Y-91527092D01*
X127043628Y-91360000D01*
X127023146Y-91099751D01*
X127021992Y-91094944D01*
X127021991Y-91094938D01*
X126968285Y-90871240D01*
X126962204Y-90845911D01*
X126939936Y-90792150D01*
X126890465Y-90672718D01*
X126882876Y-90602128D01*
X126914655Y-90538641D01*
X126975713Y-90502414D01*
X127006874Y-90498500D01*
X157486832Y-90498499D01*
X157712159Y-90498499D01*
X157715281Y-90498538D01*
G37*
%TD.AperFunction*%
%TD*%
M02*
